<?xml version="1.0" encoding="UTF-8" standalone="no"?>
<!-- Created with Inkscape (http://www.inkscape.org/) -->

<svg
   width="561.17694mm"
   height="328.60382mm"
   viewBox="0 0 561.17694 328.60382"
   version="1.1"
   id="svg5"
   inkscape:version="1.2.2 (b0a8486541, 2022-12-01)"
   sodipodi:docname="logos.svg"
   xmlns:inkscape="http://www.inkscape.org/namespaces/inkscape"
   xmlns:sodipodi="http://sodipodi.sourceforge.net/DTD/sodipodi-0.dtd"
   xmlns="http://www.w3.org/2000/svg"
   xmlns:svg="http://www.w3.org/2000/svg">
  <sodipodi:namedview
     id="namedview7"
     pagecolor="#ffffff"
     bordercolor="#999999"
     borderopacity="1"
     inkscape:showpageshadow="0"
     inkscape:pageopacity="0"
     inkscape:pagecheckerboard="0"
     inkscape:deskcolor="#ffffff"
     inkscape:document-units="px"
     showgrid="false"
     showborder="true"
     showguides="false"
     inkscape:zoom="0.5"
     inkscape:cx="907"
     inkscape:cy="645"
     inkscape:window-width="1900"
     inkscape:window-height="1016"
     inkscape:window-x="1928"
     inkscape:window-y="52"
     inkscape:window-maximized="1"
     inkscape:current-layer="layer1">
    <inkscape:grid
       type="xygrid"
       id="grid4785" />
  </sodipodi:namedview>
  <defs
     id="defs2">
    <clipPath
       clipPathUnits="userSpaceOnUse"
       id="clipPath4562">
      <g
         id="g4566"
         style="stroke-width:0.999999">
        <circle
           style="opacity:1;fill:#00ff00;stroke:none;stroke-width:0.529168;stroke-linecap:round;stroke-linejoin:round;stroke-dasharray:none;paint-order:markers fill stroke"
           id="circle4564"
           cx="184.83771"
           cy="1233.8541"
           r="56.657749" />
      </g>
    </clipPath>
    <clipPath
       clipPathUnits="userSpaceOnUse"
       id="clipPath4568">
      <g
         id="g4572"
         style="stroke-width:0.999999">
        <circle
           style="opacity:1;fill:#00ff00;stroke:none;stroke-width:0.529168;stroke-linecap:round;stroke-linejoin:round;stroke-dasharray:none;paint-order:markers fill stroke"
           id="circle4570"
           cx="184.83771"
           cy="1233.8541"
           r="56.657749" />
      </g>
    </clipPath>
    <clipPath
       clipPathUnits="userSpaceOnUse"
       id="clipPath4574">
      <g
         id="g4578"
         style="stroke-width:0.999999">
        <circle
           style="opacity:1;fill:#00ff00;stroke:none;stroke-width:0.529168;stroke-linecap:round;stroke-linejoin:round;stroke-dasharray:none;paint-order:markers fill stroke"
           id="circle4576"
           cx="184.83771"
           cy="1233.8541"
           r="56.657749" />
      </g>
    </clipPath>
    <clipPath
       clipPathUnits="userSpaceOnUse"
       id="clipPath4580">
      <g
         id="g4584"
         style="stroke-width:0.999999">
        <circle
           style="opacity:1;fill:#00ff00;stroke:none;stroke-width:0.529168;stroke-linecap:round;stroke-linejoin:round;stroke-dasharray:none;paint-order:markers fill stroke"
           id="circle4582"
           cx="184.83771"
           cy="1233.8541"
           r="56.657749" />
      </g>
    </clipPath>
    <clipPath
       clipPathUnits="userSpaceOnUse"
       id="clipPath4586">
      <g
         id="g4590"
         style="stroke-width:0.999999">
        <circle
           style="opacity:1;fill:#00ff00;stroke:none;stroke-width:0.529168;stroke-linecap:round;stroke-linejoin:round;stroke-dasharray:none;paint-order:markers fill stroke"
           id="circle4588"
           cx="184.83771"
           cy="1233.8541"
           r="56.657749" />
      </g>
    </clipPath>
    <clipPath
       clipPathUnits="userSpaceOnUse"
       id="clipPath4592">
      <g
         id="g4596"
         style="stroke-width:0.999999">
        <circle
           style="opacity:1;fill:#00ff00;stroke:none;stroke-width:0.529168;stroke-linecap:round;stroke-linejoin:round;stroke-dasharray:none;paint-order:markers fill stroke"
           id="circle4594"
           cx="184.83771"
           cy="1233.8541"
           r="56.657749" />
      </g>
    </clipPath>
    <clipPath
       clipPathUnits="userSpaceOnUse"
       id="clipPath4598">
      <g
         id="g4602"
         style="stroke-width:0.999999">
        <circle
           style="opacity:1;fill:#00ff00;stroke:none;stroke-width:0.529168;stroke-linecap:round;stroke-linejoin:round;stroke-dasharray:none;paint-order:markers fill stroke"
           id="circle4600"
           cx="184.83771"
           cy="1233.8541"
           r="56.657749" />
      </g>
    </clipPath>
    <clipPath
       clipPathUnits="userSpaceOnUse"
       id="clipPath4652">
      <g
         id="g4656"
         style="stroke-width:0.999999">
        <rect
           style="opacity:1;fill:#00ff00;stroke:none;stroke-width:0.529168;stroke-linecap:round;stroke-linejoin:round;stroke-dasharray:none;paint-order:markers fill stroke"
           id="rect4654"
           width="113.3155"
           height="113.3155"
           x="359.28223"
           y="1177.1962"
           rx="13.229165"
           ry="13.229165" />
      </g>
    </clipPath>
    <clipPath
       clipPathUnits="userSpaceOnUse"
       id="clipPath4658">
      <g
         id="g4662"
         style="stroke-width:0.999999">
        <rect
           style="opacity:1;fill:#00ff00;stroke:none;stroke-width:0.529168;stroke-linecap:round;stroke-linejoin:round;stroke-dasharray:none;paint-order:markers fill stroke"
           id="rect4660"
           width="113.3155"
           height="113.3155"
           x="359.28223"
           y="1177.1962"
           rx="13.229165"
           ry="13.229165" />
      </g>
    </clipPath>
    <clipPath
       clipPathUnits="userSpaceOnUse"
       id="clipPath4664">
      <g
         id="g4668"
         style="stroke-width:0.999999">
        <rect
           style="opacity:1;fill:#00ff00;stroke:none;stroke-width:0.529168;stroke-linecap:round;stroke-linejoin:round;stroke-dasharray:none;paint-order:markers fill stroke"
           id="rect4666"
           width="113.3155"
           height="113.3155"
           x="359.28223"
           y="1177.1962"
           rx="13.229165"
           ry="13.229165" />
      </g>
    </clipPath>
    <clipPath
       clipPathUnits="userSpaceOnUse"
       id="clipPath4670">
      <g
         id="g4674"
         style="stroke-width:0.999999">
        <rect
           style="opacity:1;fill:#00ff00;stroke:none;stroke-width:0.529168;stroke-linecap:round;stroke-linejoin:round;stroke-dasharray:none;paint-order:markers fill stroke"
           id="rect4672"
           width="113.3155"
           height="113.3155"
           x="359.28223"
           y="1177.1962"
           rx="13.229165"
           ry="13.229165" />
      </g>
    </clipPath>
    <clipPath
       clipPathUnits="userSpaceOnUse"
       id="clipPath4676">
      <g
         id="g4680"
         style="stroke-width:0.999999">
        <rect
           style="opacity:1;fill:#00ff00;stroke:none;stroke-width:0.529168;stroke-linecap:round;stroke-linejoin:round;stroke-dasharray:none;paint-order:markers fill stroke"
           id="rect4678"
           width="113.3155"
           height="113.3155"
           x="359.28223"
           y="1177.1962"
           rx="13.229165"
           ry="13.229165" />
      </g>
    </clipPath>
    <clipPath
       clipPathUnits="userSpaceOnUse"
       id="clipPath4682">
      <g
         id="g4686"
         style="stroke-width:0.999999">
        <rect
           style="opacity:1;fill:#00ff00;stroke:none;stroke-width:0.529168;stroke-linecap:round;stroke-linejoin:round;stroke-dasharray:none;paint-order:markers fill stroke"
           id="rect4684"
           width="113.3155"
           height="113.3155"
           x="359.28223"
           y="1177.1962"
           rx="13.229165"
           ry="13.229165" />
      </g>
    </clipPath>
    <clipPath
       clipPathUnits="userSpaceOnUse"
       id="clipPath4688">
      <g
         id="g4692"
         style="stroke-width:0.999999">
        <rect
           style="opacity:1;fill:#00ff00;stroke:none;stroke-width:0.529168;stroke-linecap:round;stroke-linejoin:round;stroke-dasharray:none;paint-order:markers fill stroke"
           id="rect4690"
           width="113.3155"
           height="113.3155"
           x="359.28223"
           y="1177.1962"
           rx="13.229165"
           ry="13.229165" />
      </g>
    </clipPath>
  </defs>
  <g
     inkscape:label="Layer 1"
     inkscape:groupmode="layer"
     id="layer1"
     transform="translate(88.579195,-962.04044)">
    <g
       id="g5264"
       transform="translate(-42.386183,-25.493248)"
       inkscape:export-filename="logo_squircle_rainbow.png"
       inkscape:export-xdpi="300"
       inkscape:export-ydpi="300">
      <g
         id="g4701">
        <path
           id="path4300"
           style="fill:#ff9d94;stroke:#ff9d94;stroke-width:0.264583;stroke-linecap:round;stroke-linejoin:round;stroke-dasharray:none;paint-order:markers fill stroke"
           d="m 430.5831,1177.1963 42.0145,72.7708 v -72.7708 z"
           clip-path="url(#clipPath4688)" />
        <path
           id="path4302"
           style="fill:#8bbfff;stroke:#8bbfff;stroke-width:0.264583;stroke-linecap:round;stroke-linejoin:round;stroke-dasharray:none"
           d="m 359.2821,1177.1963 v 7.736 l 60.9564,105.5796 H 439.18 l -65.4223,-113.3156 z"
           clip-path="url(#clipPath4682)" />
        <path
           id="path4304"
           style="fill:#b6b1ff;stroke:#b6b1ff;stroke-width:0.264583;stroke-linecap:round;stroke-linejoin:round;stroke-dasharray:none"
           d="m 359.2821,1184.9322 v 32.8083 l 42.0145,72.7713 h 18.9419 z"
           clip-path="url(#clipPath4676)" />
        <path
           id="path4306"
           style="fill:#ea95ff;stroke:#ea95ff;stroke-width:0.264583;stroke-linecap:round;stroke-linejoin:round;stroke-dasharray:none"
           d="m 359.2821,1217.7406 v 72.7713 h 42.0145 z"
           clip-path="url(#clipPath4670)" />
        <path
           id="path4308"
           style="fill:#00dca0;stroke:#00dca0;stroke-width:0.264583;stroke-linecap:round;stroke-linejoin:round;stroke-dasharray:none"
           d="m 373.7577,1177.1963 65.4223,113.3155 h 18.9425 l -65.4228,-113.3155 z"
           clip-path="url(#clipPath4664)" />
        <path
           id="path4310"
           style="fill:#dfb800;stroke:#dfb800;stroke-width:0.264583;stroke-linecap:round;stroke-linejoin:round;stroke-dasharray:none"
           d="m 392.6997,1177.1963 65.4228,113.3155 h 14.4751 v -7.7365 l -60.9559,-105.579 z"
           clip-path="url(#clipPath4658)" />
        <path
           id="path4312"
           style="fill:#ffa353;stroke:#ffa353;stroke-width:0.264583;stroke-linecap:round;stroke-linejoin:round;stroke-dasharray:none"
           d="m 411.6417,1177.1963 60.9559,105.579 v -32.8082 l -42.0145,-72.7708 z"
           clip-path="url(#clipPath4652)" />
      </g>
      <path
         id="path4376"
         style="fill:#dcdddd;stroke:#21252a;stroke-width:0.529166;stroke-linecap:round;stroke-linejoin:round;stroke-dasharray:none;stroke-dashoffset:0"
         d="m 423.293,1252.1447 a 3.1560514,3.1560514 0 0 0 -0.9217,-0.3537 3.1560514,3.1560514 0 0 0 -0.9862,-0.052 3.1560514,3.1560514 0 0 0 -0.9539,0.256 3.1560514,3.1560514 0 0 0 -0.8278,0.5377 3.1560514,3.1560514 0 0 0 -0.6214,0.7672 3.1560514,3.1560514 0 0 0 -0.354,0.9222 3.1560514,3.1560514 0 0 0 -0.052,0.9857 3.1560514,3.1560514 0 0 0 0.2555,0.9537 3.1560514,3.1560514 0 0 0 0.5379,0.8285 3.1560514,3.1560514 0 0 0 0.7672,0.6214 3.1560514,3.1560514 0 0 0 0.9218,0.3537 3.1560514,3.1560514 0 0 0 0.9864,0.052 3.1560514,3.1560514 0 0 0 0.9537,-0.2555 3.1560514,3.1560514 0 0 0 0.8278,-0.5377 3.1560514,3.1560514 0 0 0 0.6216,-0.7677 3.1560514,3.1560514 0 0 0 0.3538,-0.9217 3.1560514,3.1560514 0 0 0 0.052,-0.9858 3.1560514,3.1560514 0 0 0 -0.2553,-0.9541 3.1560514,3.1560514 0 0 0 -0.5381,-0.828 3.1560514,3.1560514 0 0 0 -0.7673,-0.6214 z" />
      <path
         id="path4378"
         style="fill:#dcdddd;stroke:#21252a;stroke-width:0.529166;stroke-linecap:round;stroke-linejoin:round;stroke-dasharray:none;stroke-dashoffset:0"
         d="m 436.5274,1242.2621 a 3.1560514,3.1560514 0 0 0 -0.9217,-0.3537 3.1560514,3.1560514 0 0 0 -0.9864,-0.052 3.1560514,3.1560514 0 0 0 -0.9537,0.2555 3.1560514,3.1560514 0 0 0 -0.8278,0.5377 3.1560514,3.1560514 0 0 0 -0.6216,0.7677 3.1560514,3.1560514 0 0 0 -0.3538,0.9217 3.1560514,3.1560514 0 0 0 -0.052,0.9857 3.1560514,3.1560514 0 0 0 0.2553,0.9541 3.1560514,3.1560514 0 0 0 0.5381,0.8281 3.1560514,3.1560514 0 0 0 0.7673,0.6214 3.1560514,3.1560514 0 0 0 0.9217,0.3537 3.1560514,3.1560514 0 0 0 0.9862,0.052 3.1560514,3.1560514 0 0 0 0.9539,-0.256 3.1560514,3.1560514 0 0 0 0.8283,-0.5374 3.1560514,3.1560514 0 0 0 0.6209,-0.7675 3.1560514,3.1560514 0 0 0 0.3544,-0.9219 3.1560514,3.1560514 0 0 0 0.051,-0.986 3.1560514,3.1560514 0 0 0 -0.2555,-0.9537 3.1560514,3.1560514 0 0 0 -0.5379,-0.8285 3.1560514,3.1560514 0 0 0 -0.7672,-0.6213 z" />
      <path
         id="path4380"
         style="fill:#dcdddd;stroke:#21252a;stroke-width:0.529166;stroke-linecap:round;stroke-linejoin:round;stroke-dasharray:none;stroke-dashoffset:0"
         d="m 438.5054,1225.9337 a 3.1560514,3.1560514 0 0 0 -0.9222,-0.3541 3.1560514,3.1560514 0 0 0 -0.986,-0.051 3.1560514,3.1560514 0 0 0 -0.9537,0.2556 3.1560514,3.1560514 0 0 0 -0.8282,0.5374 3.1560514,3.1560514 0 0 0 -0.6214,0.7672 3.1560514,3.1560514 0 0 0 -0.354,0.9222 3.1560514,3.1560514 0 0 0 -0.051,0.986 3.1560514,3.1560514 0 0 0 0.2555,0.9537 3.1560514,3.1560514 0 0 0 0.5375,0.8282 3.1560514,3.1560514 0 0 0 0.7676,0.6217 3.1560514,3.1560514 0 0 0 0.9218,0.3537 3.1560514,3.1560514 0 0 0 0.986,0.051 3.1560514,3.1560514 0 0 0 0.9541,-0.2553 3.1560514,3.1560514 0 0 0 0.8278,-0.5376 3.1560514,3.1560514 0 0 0 0.6216,-0.7677 3.1560514,3.1560514 0 0 0 0.3538,-0.9218 3.1560514,3.1560514 0 0 0 0.052,-0.9857 3.1560514,3.1560514 0 0 0 -0.256,-0.9539 3.1560514,3.1560514 0 0 0 -0.5374,-0.8283 3.1560514,3.1560514 0 0 0 -0.7673,-0.6213 z" />
      <path
         id="path4382"
         style="fill:#dcdddd;stroke:#21252a;stroke-width:0.529166;stroke-linecap:round;stroke-linejoin:round;stroke-dasharray:none;stroke-dashoffset:0"
         d="m 413.7843,1247.1603 a 13.375393,13.375397 30 0 0 0.5424,0.087 13.375393,13.375397 30 0 0 0.7462,0.077 13.375393,13.375397 30 0 0 0.7493,0.035 13.375393,13.375397 30 0 0 0.7506,-0.01 13.375393,13.375397 30 0 0 0.7487,-0.049 13.375393,13.375397 30 0 0 0.7447,-0.091 13.375393,13.375397 30 0 0 0.7382,-0.1323 13.375393,13.375397 30 0 0 0.73,-0.1741 13.375393,13.375397 30 0 0 0.7192,-0.2142 13.375393,13.375397 30 0 0 0.7054,-0.2545 13.375393,13.375397 30 0 0 0.6904,-0.2936 13.375393,13.375397 30 0 0 0.6731,-0.3316 13.375393,13.375397 30 0 0 0.6535,-0.3692 13.375393,13.375397 30 0 0 0.6313,-0.4053 13.375393,13.375397 30 0 0 0.6078,-0.4397 13.375393,13.375397 30 0 0 0.5822,-0.473 13.375393,13.375397 30 0 0 0.5549,-0.5054 13.375393,13.375397 30 0 0 0.5251,-0.5353 13.375393,13.375397 30 0 0 0.4946,-0.5642 13.375393,13.375397 30 0 0 0.4624,-0.5911 13.375393,13.375397 30 0 0 0.4285,-0.616 13.375393,13.375397 30 0 0 0.3933,-0.6388 13.375393,13.375397 30 0 0 0.3565,-0.6599 13.375393,13.375397 30 0 0 0.3192,-0.6791 13.375393,13.375397 30 0 0 0.2805,-0.6956 13.375393,13.375397 30 0 0 0.2413,-0.7104 13.375393,13.375397 30 0 0 0.2013,-0.7228 13.375393,13.375397 30 0 0 0.1599,-0.7329 13.375393,13.375397 30 0 0 0.1188,-0.7411 13.375393,13.375397 30 0 0 0.077,-0.7462 13.375393,13.375397 30 0 0 0.035,-0.7494 13.375393,13.375397 30 0 0 -0.01,-0.7501 13.375393,13.375397 30 0 0 -0.049,-0.7491 13.375393,13.375397 30 0 0 -0.091,-0.7447 13.375393,13.375397 30 0 0 -0.1323,-0.7382 13.375393,13.375397 30 0 0 -0.174,-0.73 13.375393,13.375397 30 0 0 -0.2146,-0.7188 13.375393,13.375397 30 0 0 -0.2542,-0.7059 13.375393,13.375397 30 0 0 -0.2936,-0.6904 13.375393,13.375397 30 0 0 -0.3316,-0.673 13.375393,13.375397 30 0 0 -0.3695,-0.6531 13.375393,13.375397 30 0 0 -0.4049,-0.6318 13.375393,13.375397 30 0 0 -0.4398,-0.6077 13.375393,13.375397 30 0 0 -0.3465,-0.4262 56.657635,56.657627 30 0 0 -2.1996,2.457 56.657635,56.657627 30 0 0 -2.8251,3.7346 56.657635,56.657627 30 0 0 -2.5072,3.955 56.657635,56.657627 30 0 0 -2.1716,4.1489 56.657635,56.657627 30 0 0 -1.8217,4.3138 56.657635,56.657627 30 0 0 -1.028,3.1335 z" />
      <path
         id="path4384"
         style="fill:#14171b;stroke:#14171b;stroke-width:0.529166;stroke-linecap:round;stroke-linejoin:round;stroke-dasharray:none;stroke-dashoffset:0"
         d="m 433.5808,1203.6611 a 35.016518,35.016506 30 0 0 -3.2657,-1.6641 35.016518,35.016506 30 0 0 -3.4218,-1.3132 35.016518,35.016506 30 0 0 -3.5404,-0.9485 35.016518,35.016506 30 0 0 -3.6201,-0.5739 35.016518,35.016506 30 0 0 -3.66,-0.1916 35.016518,35.016506 30 0 0 -3.6605,0.1917 35.016518,35.016506 30 0 0 -3.6202,0.5735 35.016518,35.016506 30 0 0 -3.5401,0.9486 35.016518,35.016506 30 0 0 -3.422,1.3134 35.016518,35.016506 30 0 0 -3.2659,1.6642 35.016518,35.016506 30 0 0 -3.0738,1.996 35.016518,35.016506 30 0 0 -2.8482,2.307 35.016518,35.016506 30 0 0 -2.5918,2.5916 35.016518,35.016506 30 0 0 -2.3067,2.8482 35.016518,35.016506 30 0 0 -1.9962,3.074 35.016518,35.016506 30 0 0 -1.6641,3.2657 35.016518,35.016506 30 0 0 -1.3132,3.4217 35.016518,35.016506 30 0 0 -0.9485,3.5405 35.016518,35.016506 30 0 0 -0.5738,3.6201 35.016518,35.016506 30 0 0 -0.192,3.6603 35.016518,35.016506 30 0 0 0.192,3.6601 35.016518,35.016506 30 0 0 0.5736,3.6202 35.016518,35.016506 30 0 0 0.9486,3.5402 35.016518,35.016506 30 0 0 1.3133,3.4219 35.016518,35.016506 30 0 0 1.6643,3.266 35.016518,35.016506 30 0 0 1.9959,3.0737 35.016518,35.016506 30 0 0 2.3068,2.8487 35.016518,35.016506 30 0 0 2.5919,2.5914 35.016518,35.016506 30 0 0 2.8481,2.3067 35.016518,35.016506 30 0 0 3.074,1.9961 35.016518,35.016506 30 0 0 3.2657,1.6641 35.016518,35.016506 30 0 0 3.4222,1.3135 35.016518,35.016506 30 0 0 3.5402,0.9489 35.016518,35.016506 30 0 0 0.3768,0.059 56.657635,56.657627 30 0 1 -0.2576,-2.6626 56.657635,56.657627 30 0 1 -0.064,-4.682 56.657635,56.657627 30 0 1 0.3223,-4.6717 56.657635,56.657627 30 0 1 0.7071,-4.6292 56.657635,56.657627 30 0 1 1.0868,-4.5549 56.657635,56.657627 30 0 1 0.2189,-0.6666 56.657635,56.657627 30 0 1 1.2407,-3.7829 56.657635,56.657627 30 0 1 1.8217,-4.3139 56.657635,56.657627 30 0 1 2.1715,-4.1488 56.657635,56.657627 30 0 1 2.5073,-3.9551 56.657635,56.657627 30 0 1 2.825,-3.7345 56.657635,56.657627 30 0 1 2.6558,-2.9659 56.657635,56.657627 30 0 1 0.4678,-0.5229 56.657635,56.657627 30 0 1 3.4013,-3.2187 56.657635,56.657627 30 0 1 3.6552,-2.9265 56.657635,56.657627 30 0 1 3.8847,-2.615 56.657635,56.657627 30 0 1 4.0871,-2.2856 56.657635,56.657627 30 0 1 2.4473,-1.1135 35.016518,35.016506 30 0 0 -0.2527,-0.2909 35.016518,35.016506 30 0 0 -0.8335,-0.8942 35.016518,35.016506 30 0 0 -0.8645,-0.8642 35.016518,35.016506 30 0 0 -0.8936,-0.8334 35.016518,35.016506 30 0 0 -0.9227,-0.8018 35.016518,35.016506 30 0 0 -0.9498,-0.7692 35.016518,35.016506 30 0 0 -0.9761,-0.736 35.016518,35.016506 30 0 0 -1.0012,-0.701 35.016518,35.016506 30 0 0 -1.025,-0.6658 35.016518,35.016506 30 0 0 -1.0478,-0.6294 z m -11.6444,18.3083 a 13.375393,13.375397 30 0 0 -0.2139,-0.1019 13.375393,13.375397 30 0 1 0.2139,0.1019 z m -1.9496,-0.7687 a 13.375393,13.375397 30 0 0 -0.2313,-0.068 13.375393,13.375397 30 0 1 0.2313,0.068 z m -2.0482,-0.4552 a 13.375393,13.375397 30 0 0 -0.2431,-0.032 13.375393,13.375397 30 0 1 0.2431,0.032 z m -2.0955,-0.1285 a 13.375393,13.375397 30 0 0 -0.2414,0.01 13.375393,13.375397 30 0 1 0.2414,-0.01 z m -2.0911,0.2009 a 13.375393,13.375397 30 0 0 -0.2299,0.043 13.375393,13.375397 30 0 1 0.2299,-0.043 z m -2.0335,0.5259 a 13.375393,13.375397 30 0 0 -0.2205,0.078 13.375393,13.375397 30 0 1 0.2205,-0.078 z m -1.9194,0.8348 a 13.375393,13.375397 30 0 0 -0.2125,0.1148 13.375393,13.375397 30 0 1 0.2125,-0.1148 z m -1.7683,1.1248 a 13.375393,13.375397 30 0 0 -0.1946,0.149 13.375393,13.375397 30 0 1 0.1946,-0.149 z m -1.5747,1.3923 a 13.375393,13.375397 30 0 0 -0.1661,0.175 13.375393,13.375397 30 0 1 0.1661,-0.175 z m -1.3359,1.6203 a 13.375393,13.375397 30 0 0 -0.1342,0.1953 13.375393,13.375397 30 0 1 0.1342,-0.1953 z m -1.0644,1.8064 a 13.375393,13.375397 30 0 0 -0.102,0.2138 13.375393,13.375397 30 0 1 0.102,-0.2138 z m -0.7687,1.9495 a 13.375393,13.375397 30 0 0 -0.069,0.2314 13.375393,13.375397 30 0 1 0.069,-0.2314 z m -0.4557,2.0534 a 13.375393,13.375397 30 0 0 -0.031,0.234 13.375393,13.375397 30 0 1 0.031,-0.234 z m -0.1283,2.0908 a 13.375393,13.375397 30 0 0 0.01,0.2414 13.375393,13.375397 30 0 1 -0.01,-0.2414 z m 0.2006,2.0885 a 13.375393,13.375397 30 0 0 0.044,0.2372 13.375393,13.375397 30 0 1 -0.044,-0.2372 z m 0.5265,2.0356 a 13.375393,13.375397 30 0 0 0.078,0.2205 13.375393,13.375397 30 0 1 -0.078,-0.2205 z m 0.8347,1.9194 a 13.375393,13.375397 30 0 0 0.1149,0.2125 13.375393,13.375397 30 0 1 -0.1149,-0.2125 z m 1.1249,1.7683 a 13.375393,13.375397 30 0 0 0.149,0.1947 13.375393,13.375397 30 0 1 -0.149,-0.1947 z m 1.3923,1.5748 a 13.375393,13.375397 30 0 0 0.175,0.1661 13.375393,13.375397 30 0 1 -0.175,-0.1661 z m 1.6203,1.3359 a 13.375393,13.375397 30 0 0 0.1952,0.1342 13.375393,13.375397 30 0 1 -0.1952,-0.1342 z" />
    </g>
    <g
       id="g5292"
       transform="translate(7.237701,-25.493248)"
       inkscape:export-filename="logo_circle_rainbow.png"
       inkscape:export-xdpi="300"
       inkscape:export-ydpi="300">
      <g
         id="g4611">
        <path
           id="path3882"
           style="fill:#ff9d94;stroke:#ff9d94;stroke-width:0.264583;stroke-linecap:round;stroke-linejoin:round;stroke-dasharray:none;paint-order:markers fill stroke"
           d="m 199.481,1177.1963 42.0145,72.7708 v -72.7708 z"
           clip-path="url(#clipPath4598)" />
        <path
           id="path3884"
           style="fill:#8bbfff;stroke:#8bbfff;stroke-width:0.264583;stroke-linecap:round;stroke-linejoin:round;stroke-dasharray:none"
           d="m 128.18,1177.1963 v 7.736 l 60.9564,105.5796 h 18.9415 l -65.4223,-113.3156 z"
           clip-path="url(#clipPath4592)" />
        <path
           id="path3886"
           style="fill:#b6b1ff;stroke:#b6b1ff;stroke-width:0.264583;stroke-linecap:round;stroke-linejoin:round;stroke-dasharray:none"
           d="m 128.18,1184.9322 v 32.8083 l 42.0145,72.7713 h 18.9419 z"
           clip-path="url(#clipPath4586)" />
        <path
           id="path3888"
           style="fill:#ea95ff;stroke:#ea95ff;stroke-width:0.264583;stroke-linecap:round;stroke-linejoin:round;stroke-dasharray:none"
           d="m 128.18,1217.7406 v 72.7713 h 42.0145 z"
           clip-path="url(#clipPath4580)" />
        <path
           id="path3890"
           style="fill:#00dca0;stroke:#00dca0;stroke-width:0.264583;stroke-linecap:round;stroke-linejoin:round;stroke-dasharray:none"
           d="m 142.6556,1177.1963 65.4223,113.3155 h 18.9425 l -65.4228,-113.3155 z"
           clip-path="url(#clipPath4574)" />
        <path
           id="path3892"
           style="fill:#dfb800;stroke:#dfb800;stroke-width:0.264583;stroke-linecap:round;stroke-linejoin:round;stroke-dasharray:none"
           d="m 161.5976,1177.1963 65.4228,113.3155 h 14.4751 v -7.7365 l -60.9559,-105.579 z"
           clip-path="url(#clipPath4568)" />
        <path
           id="path3894"
           style="fill:#ffa353;stroke:#ffa353;stroke-width:0.264583;stroke-linecap:round;stroke-linejoin:round;stroke-dasharray:none"
           d="m 180.5396,1177.1963 60.9559,105.579 v -32.8082 l -42.0145,-72.7708 z"
           clip-path="url(#clipPath4562)" />
      </g>
      <path
         id="path4362"
         style="fill:#dcdddd;stroke:#21252a;stroke-width:0.529166;stroke-linecap:round;stroke-linejoin:round;stroke-dasharray:none;stroke-dashoffset:0"
         d="m 192.191,1252.1447 a 3.1560514,3.1560514 0 0 0 -0.9217,-0.3537 3.1560514,3.1560514 0 0 0 -0.9862,-0.052 3.1560514,3.1560514 0 0 0 -0.9539,0.256 3.1560514,3.1560514 0 0 0 -0.8278,0.5377 3.1560514,3.1560514 0 0 0 -0.6214,0.7672 3.1560514,3.1560514 0 0 0 -0.354,0.9222 3.1560514,3.1560514 0 0 0 -0.052,0.9857 3.1560514,3.1560514 0 0 0 0.2555,0.9537 3.1560514,3.1560514 0 0 0 0.5379,0.8285 3.1560514,3.1560514 0 0 0 0.7672,0.6214 3.1560514,3.1560514 0 0 0 0.9218,0.3537 3.1560514,3.1560514 0 0 0 0.9864,0.052 3.1560514,3.1560514 0 0 0 0.9537,-0.2555 3.1560514,3.1560514 0 0 0 0.8278,-0.5377 3.1560514,3.1560514 0 0 0 0.6216,-0.7677 3.1560514,3.1560514 0 0 0 0.3538,-0.9217 3.1560514,3.1560514 0 0 0 0.052,-0.9858 3.1560514,3.1560514 0 0 0 -0.2553,-0.9541 3.1560514,3.1560514 0 0 0 -0.5381,-0.828 3.1560514,3.1560514 0 0 0 -0.7673,-0.6214 z" />
      <path
         id="path4364"
         style="fill:#dcdddd;stroke:#21252a;stroke-width:0.529166;stroke-linecap:round;stroke-linejoin:round;stroke-dasharray:none;stroke-dashoffset:0"
         d="m 205.4254,1242.2621 a 3.1560514,3.1560514 0 0 0 -0.9217,-0.3537 3.1560514,3.1560514 0 0 0 -0.9864,-0.052 3.1560514,3.1560514 0 0 0 -0.9537,0.2555 3.1560514,3.1560514 0 0 0 -0.8278,0.5377 3.1560514,3.1560514 0 0 0 -0.6216,0.7677 3.1560514,3.1560514 0 0 0 -0.3538,0.9217 3.1560514,3.1560514 0 0 0 -0.052,0.9857 3.1560514,3.1560514 0 0 0 0.2553,0.9541 3.1560514,3.1560514 0 0 0 0.5381,0.8281 3.1560514,3.1560514 0 0 0 0.7673,0.6214 3.1560514,3.1560514 0 0 0 0.9217,0.3537 3.1560514,3.1560514 0 0 0 0.9862,0.052 3.1560514,3.1560514 0 0 0 0.9539,-0.256 3.1560514,3.1560514 0 0 0 0.8283,-0.5374 3.1560514,3.1560514 0 0 0 0.6209,-0.7675 3.1560514,3.1560514 0 0 0 0.3544,-0.9219 3.1560514,3.1560514 0 0 0 0.051,-0.986 3.1560514,3.1560514 0 0 0 -0.2555,-0.9537 3.1560514,3.1560514 0 0 0 -0.5379,-0.8285 3.1560514,3.1560514 0 0 0 -0.7672,-0.6213 z" />
      <path
         id="path4366"
         style="fill:#dcdddd;stroke:#21252a;stroke-width:0.529166;stroke-linecap:round;stroke-linejoin:round;stroke-dasharray:none;stroke-dashoffset:0"
         d="m 207.4034,1225.9337 a 3.1560514,3.1560514 0 0 0 -0.9222,-0.3541 3.1560514,3.1560514 0 0 0 -0.986,-0.051 3.1560514,3.1560514 0 0 0 -0.9537,0.2556 3.1560514,3.1560514 0 0 0 -0.8282,0.5374 3.1560514,3.1560514 0 0 0 -0.6214,0.7672 3.1560514,3.1560514 0 0 0 -0.354,0.9222 3.1560514,3.1560514 0 0 0 -0.051,0.986 3.1560514,3.1560514 0 0 0 0.2555,0.9537 3.1560514,3.1560514 0 0 0 0.5375,0.8282 3.1560514,3.1560514 0 0 0 0.7677,0.6217 3.1560514,3.1560514 0 0 0 0.9217,0.3537 3.1560514,3.1560514 0 0 0 0.986,0.051 3.1560514,3.1560514 0 0 0 0.9541,-0.2553 3.1560514,3.1560514 0 0 0 0.8278,-0.5376 3.1560514,3.1560514 0 0 0 0.6216,-0.7677 3.1560514,3.1560514 0 0 0 0.3538,-0.9218 3.1560514,3.1560514 0 0 0 0.052,-0.9857 3.1560514,3.1560514 0 0 0 -0.256,-0.9539 3.1560514,3.1560514 0 0 0 -0.5374,-0.8283 3.1560514,3.1560514 0 0 0 -0.7673,-0.6213 z" />
      <path
         id="path4368"
         style="fill:#dcdddd;stroke:#21252a;stroke-width:0.529166;stroke-linecap:round;stroke-linejoin:round;stroke-dasharray:none;stroke-dashoffset:0"
         d="m 182.6823,1247.1603 a 13.375393,13.375397 30 0 0 0.5424,0.087 13.375393,13.375397 30 0 0 0.7462,0.077 13.375393,13.375397 30 0 0 0.7494,0.035 13.375393,13.375397 30 0 0 0.7505,-0.01 13.375393,13.375397 30 0 0 0.7487,-0.049 13.375393,13.375397 30 0 0 0.7447,-0.091 13.375393,13.375397 30 0 0 0.7382,-0.1323 13.375393,13.375397 30 0 0 0.73,-0.1741 13.375393,13.375397 30 0 0 0.7192,-0.2142 13.375393,13.375397 30 0 0 0.7054,-0.2545 13.375393,13.375397 30 0 0 0.6904,-0.2936 13.375393,13.375397 30 0 0 0.6731,-0.3316 13.375393,13.375397 30 0 0 0.6535,-0.3692 13.375393,13.375397 30 0 0 0.6314,-0.4053 13.375393,13.375397 30 0 0 0.6077,-0.4397 13.375393,13.375397 30 0 0 0.5822,-0.473 13.375393,13.375397 30 0 0 0.5549,-0.5054 13.375393,13.375397 30 0 0 0.5251,-0.5353 13.375393,13.375397 30 0 0 0.4946,-0.5642 13.375393,13.375397 30 0 0 0.4624,-0.5911 13.375393,13.375397 30 0 0 0.4285,-0.616 13.375393,13.375397 30 0 0 0.3933,-0.6388 13.375393,13.375397 30 0 0 0.3565,-0.6599 13.375393,13.375397 30 0 0 0.3192,-0.6791 13.375393,13.375397 30 0 0 0.2805,-0.6956 13.375393,13.375397 30 0 0 0.2413,-0.7104 13.375393,13.375397 30 0 0 0.2013,-0.7228 13.375393,13.375397 30 0 0 0.1599,-0.7329 13.375393,13.375397 30 0 0 0.1188,-0.7411 13.375393,13.375397 30 0 0 0.077,-0.7462 13.375393,13.375397 30 0 0 0.035,-0.7494 13.375393,13.375397 30 0 0 -0.01,-0.7501 13.375393,13.375397 30 0 0 -0.049,-0.7491 13.375393,13.375397 30 0 0 -0.091,-0.7447 13.375393,13.375397 30 0 0 -0.1323,-0.7382 13.375393,13.375397 30 0 0 -0.174,-0.73 13.375393,13.375397 30 0 0 -0.2146,-0.7188 13.375393,13.375397 30 0 0 -0.2542,-0.7059 13.375393,13.375397 30 0 0 -0.2936,-0.6904 13.375393,13.375397 30 0 0 -0.3316,-0.673 13.375393,13.375397 30 0 0 -0.3695,-0.6531 13.375393,13.375397 30 0 0 -0.4049,-0.6318 13.375393,13.375397 30 0 0 -0.4398,-0.6077 13.375393,13.375397 30 0 0 -0.3465,-0.4262 56.657635,56.657627 30 0 0 -2.1996,2.457 56.657635,56.657627 30 0 0 -2.8251,3.7346 56.657635,56.657627 30 0 0 -2.5072,3.955 56.657635,56.657627 30 0 0 -2.1716,4.1489 56.657635,56.657627 30 0 0 -1.8217,4.3138 56.657635,56.657627 30 0 0 -1.028,3.1335 z" />
      <path
         id="path4370"
         style="fill:#14171b;stroke:#14171b;stroke-width:0.529166;stroke-linecap:round;stroke-linejoin:round;stroke-dasharray:none;stroke-dashoffset:0"
         d="m 202.4788,1203.6611 a 35.016518,35.016506 30 0 0 -3.2657,-1.6641 35.016518,35.016506 30 0 0 -3.4218,-1.3132 35.016518,35.016506 30 0 0 -3.5404,-0.9485 35.016518,35.016506 30 0 0 -3.6201,-0.5739 35.016518,35.016506 30 0 0 -3.6599,-0.1916 35.016518,35.016506 30 0 0 -3.6605,0.1917 35.016518,35.016506 30 0 0 -3.6203,0.5735 35.016518,35.016506 30 0 0 -3.5401,0.9486 35.016518,35.016506 30 0 0 -3.422,1.3134 35.016518,35.016506 30 0 0 -3.2659,1.6642 35.016518,35.016506 30 0 0 -3.0738,1.996 35.016518,35.016506 30 0 0 -2.8482,2.307 35.016518,35.016506 30 0 0 -2.5918,2.5916 35.016518,35.016506 30 0 0 -2.3067,2.8482 35.016518,35.016506 30 0 0 -1.9962,3.074 35.016518,35.016506 30 0 0 -1.6641,3.2657 35.016518,35.016506 30 0 0 -1.3132,3.4217 35.016518,35.016506 30 0 0 -0.9485,3.5405 35.016518,35.016506 30 0 0 -0.5738,3.6201 35.016518,35.016506 30 0 0 -0.192,3.6603 35.016518,35.016506 30 0 0 0.192,3.6601 35.016518,35.016506 30 0 0 0.5736,3.6202 35.016518,35.016506 30 0 0 0.9485,3.5402 35.016518,35.016506 30 0 0 1.3134,3.4219 35.016518,35.016506 30 0 0 1.6643,3.266 35.016518,35.016506 30 0 0 1.9959,3.0737 35.016518,35.016506 30 0 0 2.3068,2.8487 35.016518,35.016506 30 0 0 2.5919,2.5914 35.016518,35.016506 30 0 0 2.8481,2.3067 35.016518,35.016506 30 0 0 3.074,1.9961 35.016518,35.016506 30 0 0 3.2658,1.6641 35.016518,35.016506 30 0 0 3.4222,1.3135 35.016518,35.016506 30 0 0 3.5401,0.9489 35.016518,35.016506 30 0 0 0.3768,0.059 56.657635,56.657627 30 0 1 -0.2576,-2.6626 56.657635,56.657627 30 0 1 -0.064,-4.682 56.657635,56.657627 30 0 1 0.3223,-4.6717 56.657635,56.657627 30 0 1 0.7071,-4.6292 56.657635,56.657627 30 0 1 1.0868,-4.5549 56.657635,56.657627 30 0 1 0.2189,-0.6666 56.657635,56.657627 30 0 1 1.2407,-3.7829 56.657635,56.657627 30 0 1 1.8217,-4.3139 56.657635,56.657627 30 0 1 2.1716,-4.1488 56.657635,56.657627 30 0 1 2.5072,-3.9551 56.657635,56.657627 30 0 1 2.825,-3.7345 56.657635,56.657627 30 0 1 2.6558,-2.9659 56.657635,56.657627 30 0 1 0.4678,-0.5229 56.657635,56.657627 30 0 1 3.4013,-3.2187 56.657635,56.657627 30 0 1 3.6552,-2.9265 56.657635,56.657627 30 0 1 3.8847,-2.615 56.657635,56.657627 30 0 1 4.0871,-2.2856 56.657635,56.657627 30 0 1 2.4474,-1.1135 35.016518,35.016506 30 0 0 -0.2528,-0.2909 35.016518,35.016506 30 0 0 -0.8335,-0.8942 35.016518,35.016506 30 0 0 -0.8645,-0.8642 35.016518,35.016506 30 0 0 -0.8936,-0.8334 35.016518,35.016506 30 0 0 -0.9227,-0.8018 35.016518,35.016506 30 0 0 -0.9498,-0.7692 35.016518,35.016506 30 0 0 -0.9761,-0.736 35.016518,35.016506 30 0 0 -1.0012,-0.701 35.016518,35.016506 30 0 0 -1.025,-0.6658 35.016518,35.016506 30 0 0 -1.0478,-0.6294 z m -11.6444,18.3083 a 13.375393,13.375397 30 0 0 -0.2139,-0.1019 13.375393,13.375397 30 0 1 0.2139,0.1019 z m -1.9496,-0.7687 a 13.375393,13.375397 30 0 0 -0.2313,-0.068 13.375393,13.375397 30 0 1 0.2313,0.068 z m -2.0482,-0.4552 a 13.375393,13.375397 30 0 0 -0.2431,-0.032 13.375393,13.375397 30 0 1 0.2431,0.032 z m -2.0955,-0.1285 a 13.375393,13.375397 30 0 0 -0.2414,0.01 13.375393,13.375397 30 0 1 0.2414,-0.01 z m -2.0911,0.2009 a 13.375393,13.375397 30 0 0 -0.2299,0.043 13.375393,13.375397 30 0 1 0.2299,-0.043 z m -2.0335,0.5259 a 13.375393,13.375397 30 0 0 -0.2205,0.078 13.375393,13.375397 30 0 1 0.2205,-0.078 z m -1.9194,0.8348 a 13.375393,13.375397 30 0 0 -0.2125,0.1148 13.375393,13.375397 30 0 1 0.2125,-0.1148 z m -1.7683,1.1248 a 13.375393,13.375397 30 0 0 -0.1946,0.149 13.375393,13.375397 30 0 1 0.1946,-0.149 z m -1.5747,1.3923 a 13.375393,13.375397 30 0 0 -0.1661,0.175 13.375393,13.375397 30 0 1 0.1661,-0.175 z m -1.3359,1.6203 a 13.375393,13.375397 30 0 0 -0.1342,0.1953 13.375393,13.375397 30 0 1 0.1342,-0.1953 z m -1.0644,1.8064 a 13.375393,13.375397 30 0 0 -0.102,0.2138 13.375393,13.375397 30 0 1 0.102,-0.2138 z m -0.7687,1.9495 a 13.375393,13.375397 30 0 0 -0.069,0.2314 13.375393,13.375397 30 0 1 0.069,-0.2314 z m -0.4557,2.0534 a 13.375393,13.375397 30 0 0 -0.031,0.234 13.375393,13.375397 30 0 1 0.031,-0.234 z m -0.1283,2.0908 a 13.375393,13.375397 30 0 0 0.01,0.2414 13.375393,13.375397 30 0 1 -0.01,-0.2414 z m 0.2006,2.0885 a 13.375393,13.375397 30 0 0 0.044,0.2372 13.375393,13.375397 30 0 1 -0.044,-0.2372 z m 0.5265,2.0356 a 13.375393,13.375397 30 0 0 0.078,0.2205 13.375393,13.375397 30 0 1 -0.078,-0.2205 z m 0.8347,1.9194 a 13.375393,13.375397 30 0 0 0.1149,0.2125 13.375393,13.375397 30 0 1 -0.1149,-0.2125 z m 1.1249,1.7683 a 13.375393,13.375397 30 0 0 0.149,0.1947 13.375393,13.375397 30 0 1 -0.149,-0.1947 z m 1.3923,1.5748 a 13.375393,13.375397 30 0 0 0.175,0.1661 13.375393,13.375397 30 0 1 -0.175,-0.1661 z m 1.6203,1.3359 a 13.375393,13.375397 30 0 0 0.1953,0.1342 13.375393,13.375397 30 0 1 -0.1953,-0.1342 z" />
    </g>
    <g
       id="g5320"
       transform="translate(42.386217,-25.493248)"
       inkscape:export-filename="logo_square_rainbow.png"
       inkscape:export-xdpi="300"
       inkscape:export-ydpi="300">
      <g
         id="g4773">
        <path
           id="path3840"
           style="fill:#ff9d94;stroke:#ff9d94;stroke-width:0.264583;stroke-linecap:round;stroke-linejoin:round;stroke-dasharray:none;paint-order:markers fill stroke"
           d="m -17.1459,1177.1963 42.0145,72.7708 v -72.7708 z" />
        <path
           id="path3860"
           style="fill:#8bbfff;stroke:#8bbfff;stroke-width:0.264583;stroke-linecap:round;stroke-linejoin:round;stroke-dasharray:none"
           d="m -88.4469,1177.1963 v 7.736 l 60.9564,105.5796 H -8.549 l -65.4223,-113.3156 z" />
        <path
           id="path3857"
           style="fill:#b6b1ff;stroke:#b6b1ff;stroke-width:0.264583;stroke-linecap:round;stroke-linejoin:round;stroke-dasharray:none"
           d="m -88.4469,1184.9322 v 32.8083 l 42.0145,72.7713 h 18.9419 z" />
        <path
           id="path3852"
           style="fill:#ea95ff;stroke:#ea95ff;stroke-width:0.264583;stroke-linecap:round;stroke-linejoin:round;stroke-dasharray:none"
           d="m -88.4469,1217.7406 v 72.7713 h 42.0145 z" />
        <path
           id="path3863"
           style="fill:#00dca0;stroke:#00dca0;stroke-width:0.264583;stroke-linecap:round;stroke-linejoin:round;stroke-dasharray:none"
           d="M -73.9713,1177.1963 -8.549,1290.5118 H 10.3935 L -55.0293,1177.1963 Z" />
        <path
           id="path3866"
           style="fill:#dfb800;stroke:#dfb800;stroke-width:0.264583;stroke-linecap:round;stroke-linejoin:round;stroke-dasharray:none"
           d="m -55.0293,1177.1963 65.4228,113.3155 h 14.4751 v -7.7365 l -60.9559,-105.579 z" />
        <path
           id="path3869"
           style="fill:#ffa353;stroke:#ffa353;stroke-width:0.264583;stroke-linecap:round;stroke-linejoin:round;stroke-dasharray:none"
           d="m -36.0873,1177.1963 60.9559,105.579 v -32.8082 l -42.0145,-72.7708 z" />
      </g>
      <path
         id="path4348"
         style="fill:#dcdddd;stroke:#21252a;stroke-width:0.529166;stroke-linecap:round;stroke-linejoin:round;stroke-dasharray:none;stroke-dashoffset:0"
         d="m -24.436,1252.1447 a 3.1560514,3.1560514 0 0 0 -0.9217,-0.3537 3.1560514,3.1560514 0 0 0 -0.9862,-0.052 3.1560514,3.1560514 0 0 0 -0.9539,0.256 3.1560514,3.1560514 0 0 0 -0.8278,0.5377 3.1560514,3.1560514 0 0 0 -0.6214,0.7672 3.1560514,3.1560514 0 0 0 -0.354,0.9222 3.1560514,3.1560514 0 0 0 -0.052,0.9857 3.1560514,3.1560514 0 0 0 0.2555,0.9537 3.1560514,3.1560514 0 0 0 0.5379,0.8285 3.1560514,3.1560514 0 0 0 0.7672,0.6214 3.1560514,3.1560514 0 0 0 0.9218,0.3537 3.1560514,3.1560514 0 0 0 0.9864,0.052 3.1560514,3.1560514 0 0 0 0.9537,-0.2555 3.1560514,3.1560514 0 0 0 0.8278,-0.5377 3.1560514,3.1560514 0 0 0 0.6216,-0.7677 3.1560514,3.1560514 0 0 0 0.3538,-0.9217 3.1560514,3.1560514 0 0 0 0.052,-0.9858 3.1560514,3.1560514 0 0 0 -0.2553,-0.9541 3.1560514,3.1560514 0 0 0 -0.5381,-0.828 3.1560514,3.1560514 0 0 0 -0.7673,-0.6214 z" />
      <path
         id="path4350"
         style="fill:#dcdddd;stroke:#21252a;stroke-width:0.529166;stroke-linecap:round;stroke-linejoin:round;stroke-dasharray:none;stroke-dashoffset:0"
         d="m -11.2016,1242.2621 a 3.1560514,3.1560514 0 0 0 -0.9217,-0.3537 3.1560514,3.1560514 0 0 0 -0.9864,-0.052 3.1560514,3.1560514 0 0 0 -0.9537,0.2555 3.1560514,3.1560514 0 0 0 -0.8278,0.5377 3.1560514,3.1560514 0 0 0 -0.6216,0.7677 3.1560514,3.1560514 0 0 0 -0.3538,0.9217 3.1560514,3.1560514 0 0 0 -0.052,0.9857 3.1560514,3.1560514 0 0 0 0.2553,0.9541 3.1560514,3.1560514 0 0 0 0.5381,0.8281 3.1560514,3.1560514 0 0 0 0.7673,0.6214 3.1560514,3.1560514 0 0 0 0.9217,0.3537 3.1560514,3.1560514 0 0 0 0.9862,0.052 3.1560514,3.1560514 0 0 0 0.9539,-0.256 3.1560514,3.1560514 0 0 0 0.8283,-0.5374 3.1560514,3.1560514 0 0 0 0.6209,-0.7675 3.1560514,3.1560514 0 0 0 0.3544,-0.9219 3.1560514,3.1560514 0 0 0 0.051,-0.986 3.1560514,3.1560514 0 0 0 -0.2555,-0.9537 3.1560514,3.1560514 0 0 0 -0.5379,-0.8285 3.1560514,3.1560514 0 0 0 -0.7672,-0.6213 z" />
      <path
         id="path4352"
         style="fill:#dcdddd;stroke:#21252a;stroke-width:0.529166;stroke-linecap:round;stroke-linejoin:round;stroke-dasharray:none;stroke-dashoffset:0"
         d="m -9.2236,1225.9337 a 3.1560514,3.1560514 0 0 0 -0.9222,-0.3541 3.1560514,3.1560514 0 0 0 -0.986,-0.051 3.1560514,3.1560514 0 0 0 -0.9537,0.2556 3.1560514,3.1560514 0 0 0 -0.8282,0.5374 3.1560514,3.1560514 0 0 0 -0.6214,0.7672 3.1560514,3.1560514 0 0 0 -0.354,0.9222 3.1560514,3.1560514 0 0 0 -0.051,0.986 3.1560514,3.1560514 0 0 0 0.2555,0.9537 3.1560514,3.1560514 0 0 0 0.5375,0.8282 3.1560514,3.1560514 0 0 0 0.7677,0.6217 3.1560514,3.1560514 0 0 0 0.9217,0.3537 3.1560514,3.1560514 0 0 0 0.986,0.051 3.1560514,3.1560514 0 0 0 0.9541,-0.2553 3.1560514,3.1560514 0 0 0 0.8278,-0.5376 3.1560514,3.1560514 0 0 0 0.6216,-0.7677 3.1560514,3.1560514 0 0 0 0.3538,-0.9218 3.1560514,3.1560514 0 0 0 0.052,-0.9857 3.1560514,3.1560514 0 0 0 -0.256,-0.9539 3.1560514,3.1560514 0 0 0 -0.5374,-0.8283 3.1560514,3.1560514 0 0 0 -0.7673,-0.6213 z" />
      <path
         id="path4354"
         style="fill:#dcdddd;stroke:#21252a;stroke-width:0.529166;stroke-linecap:round;stroke-linejoin:round;stroke-dasharray:none;stroke-dashoffset:0"
         d="m -33.9447,1247.1603 a 13.375393,13.375397 30 0 0 0.5424,0.087 13.375393,13.375397 30 0 0 0.7462,0.077 13.375393,13.375397 30 0 0 0.7494,0.035 13.375393,13.375397 30 0 0 0.7505,-0.01 13.375393,13.375397 30 0 0 0.7487,-0.049 13.375393,13.375397 30 0 0 0.7447,-0.091 13.375393,13.375397 30 0 0 0.7382,-0.1323 13.375393,13.375397 30 0 0 0.73,-0.1741 13.375393,13.375397 30 0 0 0.7192,-0.2142 13.375393,13.375397 30 0 0 0.7054,-0.2545 13.375393,13.375397 30 0 0 0.6904,-0.2936 13.375393,13.375397 30 0 0 0.6731,-0.3316 13.375393,13.375397 30 0 0 0.6535,-0.3692 13.375393,13.375397 30 0 0 0.6314,-0.4053 13.375393,13.375397 30 0 0 0.6077,-0.4397 13.375393,13.375397 30 0 0 0.5822,-0.473 13.375393,13.375397 30 0 0 0.5549,-0.5054 13.375393,13.375397 30 0 0 0.5251,-0.5353 13.375393,13.375397 30 0 0 0.4946,-0.5642 13.375393,13.375397 30 0 0 0.4624,-0.5911 13.375393,13.375397 30 0 0 0.4285,-0.616 13.375393,13.375397 30 0 0 0.3933,-0.6388 13.375393,13.375397 30 0 0 0.3565,-0.6599 13.375393,13.375397 30 0 0 0.3192,-0.6791 13.375393,13.375397 30 0 0 0.2805,-0.6956 13.375393,13.375397 30 0 0 0.2413,-0.7104 13.375393,13.375397 30 0 0 0.2013,-0.7228 13.375393,13.375397 30 0 0 0.1599,-0.7329 13.375393,13.375397 30 0 0 0.1188,-0.7411 13.375393,13.375397 30 0 0 0.077,-0.7462 13.375393,13.375397 30 0 0 0.035,-0.7494 13.375393,13.375397 30 0 0 -0.01,-0.7501 13.375393,13.375397 30 0 0 -0.049,-0.7491 13.375393,13.375397 30 0 0 -0.091,-0.7447 13.375393,13.375397 30 0 0 -0.1323,-0.7382 13.375393,13.375397 30 0 0 -0.174,-0.73 13.375393,13.375397 30 0 0 -0.2146,-0.7188 13.375393,13.375397 30 0 0 -0.2542,-0.7059 13.375393,13.375397 30 0 0 -0.2936,-0.6904 13.375393,13.375397 30 0 0 -0.3316,-0.673 13.375393,13.375397 30 0 0 -0.3695,-0.6531 13.375393,13.375397 30 0 0 -0.4049,-0.6318 13.375393,13.375397 30 0 0 -0.4398,-0.6077 13.375393,13.375397 30 0 0 -0.3465,-0.4262 56.657635,56.657627 30 0 0 -2.1996,2.457 56.657635,56.657627 30 0 0 -2.8251,3.7346 56.657635,56.657627 30 0 0 -2.5072,3.955 56.657635,56.657627 30 0 0 -2.1716,4.1489 56.657635,56.657627 30 0 0 -1.8217,4.3138 56.657635,56.657627 30 0 0 -1.028,3.1335 z" />
      <path
         id="path4356"
         style="fill:#14171b;stroke:#14171b;stroke-width:0.529166;stroke-linecap:round;stroke-linejoin:round;stroke-dasharray:none;stroke-dashoffset:0"
         d="m -14.1482,1203.6611 a 35.016518,35.016506 30 0 0 -3.2657,-1.6641 35.016518,35.016506 30 0 0 -3.4218,-1.3132 35.016518,35.016506 30 0 0 -3.5404,-0.9485 35.016518,35.016506 30 0 0 -3.6201,-0.5739 35.016518,35.016506 30 0 0 -3.6599,-0.1916 35.016518,35.016506 30 0 0 -3.6605,0.1917 35.016518,35.016506 30 0 0 -3.6203,0.5735 35.016518,35.016506 30 0 0 -3.5401,0.9486 35.016518,35.016506 30 0 0 -3.422,1.3134 35.016518,35.016506 30 0 0 -3.2659,1.6642 35.016518,35.016506 30 0 0 -3.0738,1.996 35.016518,35.016506 30 0 0 -2.8482,2.307 35.016518,35.016506 30 0 0 -2.5918,2.5916 35.016518,35.016506 30 0 0 -2.3067,2.8482 35.016518,35.016506 30 0 0 -1.9962,3.074 35.016518,35.016506 30 0 0 -1.6641,3.2657 35.016518,35.016506 30 0 0 -1.3132,3.4217 35.016518,35.016506 30 0 0 -0.9485,3.5405 35.016518,35.016506 30 0 0 -0.5738,3.6201 35.016518,35.016506 30 0 0 -0.192,3.6603 35.016518,35.016506 30 0 0 0.192,3.6601 35.016518,35.016506 30 0 0 0.5736,3.6202 35.016518,35.016506 30 0 0 0.9486,3.5402 35.016518,35.016506 30 0 0 1.3133,3.4219 35.016518,35.016506 30 0 0 1.6643,3.266 35.016518,35.016506 30 0 0 1.9959,3.0737 35.016518,35.016506 30 0 0 2.3068,2.8487 35.016518,35.016506 30 0 0 2.5919,2.5914 35.016518,35.016506 30 0 0 2.8481,2.3067 35.016518,35.016506 30 0 0 3.074,1.9961 35.016518,35.016506 30 0 0 3.2658,1.6641 35.016518,35.016506 30 0 0 3.4222,1.3135 35.016518,35.016506 30 0 0 3.5401,0.9489 35.016518,35.016506 30 0 0 0.3768,0.059 56.657635,56.657627 30 0 1 -0.2576,-2.6626 56.657635,56.657627 30 0 1 -0.064,-4.682 56.657635,56.657627 30 0 1 0.3223,-4.6717 56.657635,56.657627 30 0 1 0.7071,-4.6292 56.657635,56.657627 30 0 1 1.0868,-4.5549 56.657635,56.657627 30 0 1 0.2189,-0.6666 56.657635,56.657627 30 0 1 1.2407,-3.7829 56.657635,56.657627 30 0 1 1.8217,-4.3139 56.657635,56.657627 30 0 1 2.1716,-4.1488 56.657635,56.657627 30 0 1 2.5072,-3.9551 56.657635,56.657627 30 0 1 2.825,-3.7345 56.657635,56.657627 30 0 1 2.6558,-2.9659 56.657635,56.657627 30 0 1 0.4678,-0.5229 56.657635,56.657627 30 0 1 3.4013,-3.2187 56.657635,56.657627 30 0 1 3.6552,-2.9265 56.657635,56.657627 30 0 1 3.8847,-2.615 56.657635,56.657627 30 0 1 4.0871,-2.2856 56.657635,56.657627 30 0 1 2.4474,-1.1135 35.016518,35.016506 30 0 0 -0.2528,-0.2909 35.016518,35.016506 30 0 0 -0.8335,-0.8942 35.016518,35.016506 30 0 0 -0.8645,-0.8642 35.016518,35.016506 30 0 0 -0.8936,-0.8334 35.016518,35.016506 30 0 0 -0.9227,-0.8018 35.016518,35.016506 30 0 0 -0.9498,-0.7692 35.016518,35.016506 30 0 0 -0.9761,-0.736 35.016518,35.016506 30 0 0 -1.0012,-0.701 35.016518,35.016506 30 0 0 -1.025,-0.6658 35.016518,35.016506 30 0 0 -1.0478,-0.6294 z m -11.6444,18.3083 a 13.375393,13.375397 30 0 0 -0.2139,-0.1019 13.375393,13.375397 30 0 1 0.2139,0.1019 z m -1.9496,-0.7687 a 13.375393,13.375397 30 0 0 -0.2313,-0.068 13.375393,13.375397 30 0 1 0.2313,0.068 z m -2.0482,-0.4552 a 13.375393,13.375397 30 0 0 -0.2431,-0.032 13.375393,13.375397 30 0 1 0.2431,0.032 z m -2.0955,-0.1285 a 13.375393,13.375397 30 0 0 -0.2414,0.01 13.375393,13.375397 30 0 1 0.2414,-0.01 z m -2.0911,0.2009 a 13.375393,13.375397 30 0 0 -0.2299,0.043 13.375393,13.375397 30 0 1 0.2299,-0.043 z m -2.0335,0.5259 a 13.375393,13.375397 30 0 0 -0.2205,0.078 13.375393,13.375397 30 0 1 0.2205,-0.078 z m -1.9194,0.8348 a 13.375393,13.375397 30 0 0 -0.2125,0.1148 13.375393,13.375397 30 0 1 0.2125,-0.1148 z m -1.7683,1.1248 a 13.375393,13.375397 30 0 0 -0.1946,0.149 13.375393,13.375397 30 0 1 0.1946,-0.149 z m -1.5747,1.3923 a 13.375393,13.375397 30 0 0 -0.1661,0.175 13.375393,13.375397 30 0 1 0.1661,-0.175 z m -1.3359,1.6203 a 13.375393,13.375397 30 0 0 -0.1342,0.1953 13.375393,13.375397 30 0 1 0.1342,-0.1953 z m -1.0644,1.8064 a 13.375393,13.375397 30 0 0 -0.102,0.2138 13.375393,13.375397 30 0 1 0.102,-0.2138 z m -0.7687,1.9495 a 13.375393,13.375397 30 0 0 -0.069,0.2314 13.375393,13.375397 30 0 1 0.069,-0.2314 z m -0.4557,2.0534 a 13.375393,13.375397 30 0 0 -0.031,0.234 13.375393,13.375397 30 0 1 0.031,-0.234 z m -0.1283,2.0908 a 13.375393,13.375397 30 0 0 0.01,0.2414 13.375393,13.375397 30 0 1 -0.01,-0.2414 z m 0.2006,2.0885 a 13.375393,13.375397 30 0 0 0.044,0.2372 13.375393,13.375397 30 0 1 -0.044,-0.2372 z m 0.5265,2.0356 a 13.375393,13.375397 30 0 0 0.078,0.2205 13.375393,13.375397 30 0 1 -0.078,-0.2205 z m 0.8347,1.9194 a 13.375393,13.375397 30 0 0 0.1149,0.2125 13.375393,13.375397 30 0 1 -0.1149,-0.2125 z m 1.1249,1.7683 a 13.375393,13.375397 30 0 0 0.149,0.1947 13.375393,13.375397 30 0 1 -0.149,-0.1947 z m 1.3923,1.5748 a 13.375393,13.375397 30 0 0 0.175,0.1661 13.375393,13.375397 30 0 1 -0.175,-0.1661 z m 1.6203,1.3359 a 13.375393,13.375397 30 0 0 0.1953,0.1342 13.375393,13.375397 30 0 1 -0.1953,-0.1342 z" />
    </g>
    <g
       id="g5226"
       inkscape:export-filename="logo_circle_dark.png"
       inkscape:export-xdpi="300"
       inkscape:export-ydpi="300"
       transform="translate(31.26212,23.726607)">
      <path
         id="path5196"
         style="fill:#14171b;stroke:none;stroke-width:0.529167;stroke-linecap:round;stroke-linejoin:round"
         d="m 35.992829,1020.4648 a 56.657635,56.657627 0 0 1 -56.65762,56.6577 56.657635,56.657627 0 0 1 -56.657645,-56.6577 56.657635,56.657627 0 0 1 56.657645,-56.6576 56.657635,56.657627 0 0 1 56.65762,56.6576 z" />
      <g
         id="g5216"
         transform="translate(-143.11887,85.157109)">
        <path
           id="path5198"
           style="fill:#14171b;stroke:none;stroke-width:0.529167;stroke-linecap:round;stroke-linejoin:round"
           d="m 157.60288,935.44006 a 35.016518,35.016506 0 0 1 -35.01652,35.0165 35.016518,35.016506 0 0 1 -35.016522,-35.0165 35.016518,35.016506 0 0 1 35.016522,-35.01651 35.016518,35.016506 0 0 1 35.01652,35.01651 z" />
        <path
           id="path5200"
           style="fill:#dcdddd;stroke:#dcdddd;stroke-width:0.529166;stroke-linecap:round;stroke-linejoin:round;stroke-dasharray:none;stroke-dashoffset:0"
           d="m 129.80703,953.59847 a 3.1560514,3.1560514 0 0 0 -0.92174,-0.35375 3.1560514,3.1560514 0 0 0 -0.98617,-0.052 3.1560514,3.1560514 0 0 0 -0.95394,0.25598 3.1560514,3.1560514 0 0 0 -0.82779,0.53768 3.1560514,3.1560514 0 0 0 -0.62137,0.76724 3.1560514,3.1560514 0 0 0 -0.35402,0.92219 3.1560514,3.1560514 0 0 0 -0.0517,0.98571 3.1560514,3.1560514 0 0 0 0.25554,0.9537 3.1560514,3.1560514 0 0 0 0.53787,0.82848 3.1560514,3.1560514 0 0 0 0.76723,0.62138 3.1560514,3.1560514 0 0 0 0.92176,0.35375 3.1560514,3.1560514 0 0 0 0.98642,0.0516 3.1560514,3.1560514 0 0 0 0.95368,-0.25555 3.1560514,3.1560514 0 0 0 0.82778,-0.53767 3.1560514,3.1560514 0 0 0 0.62163,-0.76768 3.1560514,3.1560514 0 0 0 0.35376,-0.92175 3.1560514,3.1560514 0 0 0 0.0517,-0.98572 3.1560514,3.1560514 0 0 0 -0.25527,-0.95413 3.1560514,3.1560514 0 0 0 -0.53813,-0.82804 3.1560514,3.1560514 0 0 0 -0.76724,-0.62138 z" />
        <path
           id="path5202"
           style="fill:#dcdddd;stroke:#dcdddd;stroke-width:0.529166;stroke-linecap:round;stroke-linejoin:round;stroke-dasharray:none;stroke-dashoffset:0"
           d="m 143.04144,943.71584 a 3.1560514,3.1560514 0 0 0 -0.92175,-0.35376 3.1560514,3.1560514 0 0 0 -0.98642,-0.0516 3.1560514,3.1560514 0 0 0 -0.95369,0.25553 3.1560514,3.1560514 0 0 0 -0.82777,0.53769 3.1560514,3.1560514 0 0 0 -0.62164,0.76768 3.1560514,3.1560514 0 0 0 -0.35375,0.92174 3.1560514,3.1560514 0 0 0 -0.0518,0.98572 3.1560514,3.1560514 0 0 0 0.25529,0.95413 3.1560514,3.1560514 0 0 0 0.53812,0.82804 3.1560514,3.1560514 0 0 0 0.76724,0.62138 3.1560514,3.1560514 0 0 0 0.92175,0.35376 3.1560514,3.1560514 0 0 0 0.98616,0.052 3.1560514,3.1560514 0 0 0 0.95395,-0.25598 3.1560514,3.1560514 0 0 0 0.82822,-0.53743 3.1560514,3.1560514 0 0 0 0.62094,-0.76749 3.1560514,3.1560514 0 0 0 0.35445,-0.92194 3.1560514,3.1560514 0 0 0 0.0513,-0.98598 3.1560514,3.1560514 0 0 0 -0.25555,-0.95368 3.1560514,3.1560514 0 0 0 -0.53786,-0.82849 3.1560514,3.1560514 0 0 0 -0.76724,-0.62137 z" />
        <path
           id="path5204"
           style="fill:#dcdddd;stroke:#dcdddd;stroke-width:0.529166;stroke-linecap:round;stroke-linejoin:round;stroke-dasharray:none;stroke-dashoffset:0"
           d="m 145.01937,927.38739 a 3.1560514,3.1560514 0 0 0 -0.92219,-0.35402 3.1560514,3.1560514 0 0 0 -0.98597,-0.0513 3.1560514,3.1560514 0 0 0 -0.95369,0.25554 3.1560514,3.1560514 0 0 0 -0.82822,0.53742 3.1560514,3.1560514 0 0 0 -0.62139,0.76724 3.1560514,3.1560514 0 0 0 -0.35401,0.9222 3.1560514,3.1560514 0 0 0 -0.0513,0.98597 3.1560514,3.1560514 0 0 0 0.25554,0.95369 3.1560514,3.1560514 0 0 0 0.53742,0.82822 3.1560514,3.1560514 0 0 0 0.76769,0.62163 3.1560514,3.1560514 0 0 0 0.92175,0.35376 3.1560514,3.1560514 0 0 0 0.98597,0.0513 3.1560514,3.1560514 0 0 0 0.95413,-0.25528 3.1560514,3.1560514 0 0 0 0.82778,-0.53768 3.1560514,3.1560514 0 0 0 0.62163,-0.76768 3.1560514,3.1560514 0 0 0 0.35377,-0.92175 3.1560514,3.1560514 0 0 0 0.0517,-0.98572 3.1560514,3.1560514 0 0 0 -0.25599,-0.95394 3.1560514,3.1560514 0 0 0 -0.53742,-0.82823 3.1560514,3.1560514 0 0 0 -0.76724,-0.62137 z" />
        <path
           id="path5206"
           style="fill:#dcdddd;stroke:#dcdddd;stroke-width:0.529166;stroke-linecap:round;stroke-linejoin:round;stroke-dasharray:none;stroke-dashoffset:0"
           d="m 120.29833,948.61404 a 13.375393,13.375397 30 0 0 0.54232,0.087 13.375393,13.375397 30 0 0 0.74621,0.077 13.375393,13.375397 30 0 0 0.74939,0.0353 13.375393,13.375397 30 0 0 0.75055,-0.007 13.375393,13.375397 30 0 0 0.74869,-0.0493 13.375393,13.375397 30 0 0 0.7447,-0.091 13.375393,13.375397 30 0 0 0.73816,-0.13234 13.375393,13.375397 30 0 0 0.73001,-0.17405 13.375393,13.375397 30 0 0 0.71923,-0.21427 13.375393,13.375397 30 0 0 0.70544,-0.25447 13.375393,13.375397 30 0 0 0.69041,-0.29357 13.375393,13.375397 30 0 0 0.67303,-0.33166 13.375393,13.375397 30 0 0 0.65351,-0.36917 13.375393,13.375397 30 0 0 0.63137,-0.40524 13.375393,13.375397 30 0 0 0.60774,-0.43975 13.375393,13.375397 30 0 0 0.58218,-0.47301 13.375393,13.375397 30 0 0 0.55497,-0.50543 13.375393,13.375397 30 0 0 0.52503,-0.53526 13.375393,13.375397 30 0 0 0.49459,-0.56416 13.375393,13.375397 30 0 0 0.4624,-0.5911 13.375393,13.375397 30 0 0 0.42852,-0.61602 13.375393,13.375397 30 0 0 0.39328,-0.63877 13.375393,13.375397 30 0 0 0.35655,-0.65996 13.375393,13.375397 30 0 0 0.31923,-0.67913 13.375393,13.375397 30 0 0 0.28045,-0.69556 13.375393,13.375397 30 0 0 0.24128,-0.7104 13.375393,13.375397 30 0 0 0.20129,-0.72277 13.375393,13.375397 30 0 0 0.15997,-0.73288 13.375393,13.375397 30 0 0 0.11881,-0.74114 13.375393,13.375397 30 0 0 0.077,-0.7462 13.375393,13.375397 30 0 0 0.0353,-0.7494 13.375393,13.375397 30 0 0 -0.007,-0.75009 13.375393,13.375397 30 0 0 -0.049,-0.74914 13.375393,13.375397 30 0 0 -0.091,-0.7447 13.375393,13.375397 30 0 0 -0.13235,-0.73816 13.375393,13.375397 30 0 0 -0.17404,-0.73001 13.375393,13.375397 30 0 0 -0.21454,-0.71878 13.375393,13.375397 30 0 0 -0.25421,-0.70588 13.375393,13.375397 30 0 0 -0.29356,-0.69043 13.375393,13.375397 30 0 0 -0.33166,-0.67302 13.375393,13.375397 30 0 0 -0.36944,-0.65306 13.375393,13.375397 30 0 0 -0.40497,-0.63182 13.375393,13.375397 30 0 0 -0.43976,-0.60774 13.375393,13.375397 30 0 0 -0.34647,-0.42619 56.657635,56.657627 30 0 0 -2.19967,2.45705 56.657635,56.657627 30 0 0 -2.82506,3.73456 56.657635,56.657627 30 0 0 -2.50722,3.95505 56.657635,56.657627 30 0 0 -2.17156,4.14884 56.657635,56.657627 30 0 0 -1.82169,4.31384 56.657635,56.657627 30 0 0 -1.02804,3.13351 z" />
        <path
           id="path5208"
           style="fill:#dcdddd;stroke:#dcdddd;stroke-width:0.529166;stroke-linecap:round;stroke-linejoin:round;stroke-dasharray:none;stroke-dashoffset:0"
           d="m 140.09479,905.11476 a 35.016518,35.016506 30 0 0 -3.26572,-1.66409 35.016518,35.016506 30 0 0 -3.42176,-1.3132 35.016518,35.016506 30 0 0 -3.54042,-0.94851 35.016518,35.016506 30 0 0 -3.62011,-0.57383 35.016518,35.016506 30 0 0 -3.65993,-0.19167 35.016518,35.016506 30 0 0 -3.6605,0.1917 35.016518,35.016506 30 0 0 -3.62021,0.57357 35.016518,35.016506 30 0 0 -3.54015,0.94859 35.016518,35.016506 30 0 0 -3.42198,1.31336 35.016518,35.016506 30 0 0 -3.26594,1.66424 35.016518,35.016506 30 0 0 -3.07376,1.99596 35.016518,35.016506 30 0 0 -2.848193,2.30699 35.016518,35.016506 30 0 0 -2.59184,2.59165 35.016518,35.016506 30 0 0 -2.30672,2.84816 35.016518,35.016506 30 0 0 -1.996155,3.074 35.016518,35.016506 30 0 0 -1.664085,3.26572 35.016518,35.016506 30 0 0 -1.313218,3.42176 35.016518,35.016506 30 0 0 -0.948508,3.54042 35.016518,35.016506 30 0 0 -0.573827,3.6201 35.016518,35.016506 30 0 0 -0.191926,3.66038 35.016518,35.016506 30 0 0 0.191956,3.66006 35.016518,35.016506 30 0 0 0.573582,3.6202 35.016518,35.016506 30 0 0 0.948575,3.54016 35.016518,35.016506 30 0 0 1.313381,3.42198 35.016518,35.016506 30 0 0 1.664231,3.26593 35.016518,35.016506 30 0 0 1.995955,3.07376 35.016518,35.016506 30 0 0 2.306749,2.84864 35.016518,35.016506 30 0 0 2.5919,2.59139 35.016518,35.016506 30 0 0 2.848153,2.30673 35.016518,35.016506 30 0 0 3.074,1.99615 35.016518,35.016506 30 0 0 3.26573,1.66409 35.016518,35.016506 30 0 0 3.4222,1.31347 35.016518,35.016506 30 0 0 3.54017,0.94895 35.016518,35.016506 30 0 0 0.37682,0.0594 56.657635,56.657627 30 0 1 -0.25762,-2.66267 56.657635,56.657627 30 0 1 -0.0644,-4.68196 56.657635,56.657627 30 0 1 0.32231,-4.6717 56.657635,56.657627 30 0 1 0.7071,-4.62918 56.657635,56.657627 30 0 1 1.08673,-4.55498 56.657635,56.657627 30 0 1 0.21898,-0.6666 56.657635,56.657627 30 0 1 1.24065,-3.78289 56.657635,56.657627 30 0 1 1.8217,-4.31384 56.657635,56.657627 30 0 1 2.17156,-4.14884 56.657635,56.657627 30 0 1 2.50722,-3.95505 56.657635,56.657627 30 0 1 2.82505,-3.73456 56.657635,56.657627 30 0 1 2.65575,-2.96588 56.657635,56.657627 30 0 1 0.4678,-0.52294 56.657635,56.657627 30 0 1 3.40137,-3.21863 56.657635,56.657627 30 0 1 3.65517,-2.9265 56.657635,56.657627 30 0 1 3.88466,-2.61499 56.657635,56.657627 30 0 1 4.08715,-2.28565 56.657635,56.657627 30 0 1 2.44733,-1.1135 35.016518,35.016506 30 0 0 -0.25272,-0.29091 35.016518,35.016506 30 0 0 -0.83352,-0.89415 35.016518,35.016506 30 0 0 -0.86448,-0.86429 35.016518,35.016506 30 0 0 -0.89365,-0.8334 35.016518,35.016506 30 0 0 -0.92264,-0.8018 35.016518,35.016506 30 0 0 -0.94983,-0.76916 35.016518,35.016506 30 0 0 -0.97612,-0.73602 35.016518,35.016506 30 0 0 -1.00116,-0.70094 35.016518,35.016506 30 0 0 -1.02502,-0.66581 35.016518,35.016506 30 0 0 -1.04782,-0.62944 z m -11.64443,18.30839 a 13.375393,13.375397 30 0 0 -0.21382,-0.10197 13.375393,13.375397 30 0 1 0.21382,0.10197 z m -1.94956,-0.76874 a 13.375393,13.375397 30 0 0 -0.23133,-0.0685 13.375393,13.375397 30 0 1 0.23133,0.0685 z m -2.04825,-0.45518 a 13.375393,13.375397 30 0 0 -0.24307,-0.0317 13.375393,13.375397 30 0 1 0.24307,0.0317 z m -2.09542,-0.12855 a 13.375393,13.375397 30 0 0 -0.24142,0.007 13.375393,13.375397 30 0 1 0.24142,-0.007 z m -2.09111,0.20093 a 13.375393,13.375397 30 0 0 -0.22991,0.0427 13.375393,13.375397 30 0 1 0.22991,-0.0427 z m -2.03352,0.52596 a 13.375393,13.375397 30 0 0 -0.22046,0.078 13.375393,13.375397 30 0 1 0.22046,-0.078 z m -1.91939,0.83473 a 13.375393,13.375397 30 0 0 -0.21249,0.11481 13.375393,13.375397 30 0 1 0.21249,-0.11481 z m -1.76827,1.12484 a 13.375393,13.375397 30 0 0 -0.19467,0.14898 13.375393,13.375397 30 0 1 0.19467,-0.14898 z m -1.57478,1.39231 a 13.375393,13.375397 30 0 0 -0.16606,0.17502 13.375393,13.375397 30 0 1 0.16606,-0.17502 z m -1.33589,1.62032 a 13.375393,13.375397 30 0 0 -0.13419,0.19522 13.375393,13.375397 30 0 1 0.13419,-0.19522 z m -1.06437,1.80634 a 13.375393,13.375397 30 0 0 -0.10197,0.21382 13.375393,13.375397 30 0 1 0.10197,-0.21382 z m -0.76874,1.94956 a 13.375393,13.375397 30 0 0 -0.0686,0.23133 13.375393,13.375397 30 0 1 0.0686,-0.23133 z m -0.45571,2.05332 a 13.375393,13.375397 30 0 0 -0.0307,0.23405 13.375393,13.375397 30 0 1 0.0307,-0.23405 z m -0.12828,2.0908 a 13.375393,13.375397 30 0 0 0.007,0.24142 13.375393,13.375397 30 0 1 -0.007,-0.24142 z m 0.20062,2.08854 a 13.375393,13.375397 30 0 0 0.0439,0.23716 13.375393,13.375397 30 0 1 -0.0439,-0.23716 z m 0.52654,2.03564 a 13.375393,13.375397 30 0 0 0.078,0.22046 13.375393,13.375397 30 0 1 -0.078,-0.22046 z m 0.83471,1.9194 a 13.375393,13.375397 30 0 0 0.11482,0.21247 13.375393,13.375397 30 0 1 -0.11482,-0.21247 z m 1.12486,1.76826 a 13.375393,13.375397 30 0 0 0.14897,0.19466 13.375393,13.375397 30 0 1 -0.14897,-0.19466 z m 1.3923,1.57479 a 13.375393,13.375397 30 0 0 0.17503,0.16606 13.375393,13.375397 30 0 1 -0.17503,-0.16606 z m 1.62033,1.33589 a 13.375393,13.375397 30 0 0 0.19522,0.13419 13.375393,13.375397 30 0 1 -0.19522,-0.13419 z" />
      </g>
    </g>
    <g
       id="g5272"
       transform="translate(-26.733064,21.190807)"
       inkscape:export-filename="logo_circle_light.png"
       inkscape:export-xdpi="300"
       inkscape:export-ydpi="300">
      <path
         id="path5228"
         style="fill:#dcdddd;stroke:none;stroke-width:0.529167;stroke-linecap:round;stroke-linejoin:round"
         d="m 275.4664,1023.0006 a 56.657635,56.657627 0 0 1 -56.65762,56.6577 56.657635,56.657627 0 0 1 -56.65765,-56.6577 56.657635,56.657627 0 0 1 56.65765,-56.65764 56.657635,56.657627 0 0 1 56.65762,56.65764 z" />
      <path
         id="path5232"
         style="fill:#14171b;stroke:#14171b;stroke-width:0.529166;stroke-linecap:round;stroke-linejoin:round;stroke-dasharray:none;stroke-dashoffset:0"
         d="m 226.16173,1041.2913 a 3.1560514,3.1560514 0 0 0 -0.92174,-0.3537 3.1560514,3.1560514 0 0 0 -0.98617,-0.052 3.1560514,3.1560514 0 0 0 -0.95394,0.256 3.1560514,3.1560514 0 0 0 -0.82779,0.5377 3.1560514,3.1560514 0 0 0 -0.62137,0.7672 3.1560514,3.1560514 0 0 0 -0.35402,0.9222 3.1560514,3.1560514 0 0 0 -0.0517,0.9857 3.1560514,3.1560514 0 0 0 0.25554,0.9537 3.1560514,3.1560514 0 0 0 0.53787,0.8285 3.1560514,3.1560514 0 0 0 0.76723,0.6214 3.1560514,3.1560514 0 0 0 0.92176,0.3537 3.1560514,3.1560514 0 0 0 0.98642,0.052 3.1560514,3.1560514 0 0 0 0.95368,-0.2555 3.1560514,3.1560514 0 0 0 0.82778,-0.5377 3.1560514,3.1560514 0 0 0 0.62163,-0.7677 3.1560514,3.1560514 0 0 0 0.35376,-0.9217 3.1560514,3.1560514 0 0 0 0.0517,-0.9858 3.1560514,3.1560514 0 0 0 -0.25527,-0.9541 3.1560514,3.1560514 0 0 0 -0.53813,-0.828 3.1560514,3.1560514 0 0 0 -0.76724,-0.6214 z" />
      <path
         id="path5234"
         style="fill:#14171b;stroke:#14171b;stroke-width:0.529166;stroke-linecap:round;stroke-linejoin:round;stroke-dasharray:none;stroke-dashoffset:0"
         d="m 239.39614,1031.4087 a 3.1560514,3.1560514 0 0 0 -0.92175,-0.3537 3.1560514,3.1560514 0 0 0 -0.98642,-0.052 3.1560514,3.1560514 0 0 0 -0.95369,0.2555 3.1560514,3.1560514 0 0 0 -0.82777,0.5377 3.1560514,3.1560514 0 0 0 -0.62164,0.7677 3.1560514,3.1560514 0 0 0 -0.35375,0.9217 3.1560514,3.1560514 0 0 0 -0.0518,0.9857 3.1560514,3.1560514 0 0 0 0.25529,0.9541 3.1560514,3.1560514 0 0 0 0.53812,0.8281 3.1560514,3.1560514 0 0 0 0.76724,0.6214 3.1560514,3.1560514 0 0 0 0.92175,0.3537 3.1560514,3.1560514 0 0 0 0.98616,0.052 3.1560514,3.1560514 0 0 0 0.95395,-0.256 3.1560514,3.1560514 0 0 0 0.82822,-0.5374 3.1560514,3.1560514 0 0 0 0.62094,-0.7675 3.1560514,3.1560514 0 0 0 0.35445,-0.9219 3.1560514,3.1560514 0 0 0 0.0513,-0.986 3.1560514,3.1560514 0 0 0 -0.25555,-0.9537 3.1560514,3.1560514 0 0 0 -0.53786,-0.8285 3.1560514,3.1560514 0 0 0 -0.76724,-0.6213 z" />
      <path
         id="path5236"
         style="fill:#14171b;stroke:#14171b;stroke-width:0.529166;stroke-linecap:round;stroke-linejoin:round;stroke-dasharray:none;stroke-dashoffset:0"
         d="m 241.37407,1015.0803 a 3.1560514,3.1560514 0 0 0 -0.92219,-0.3541 3.1560514,3.1560514 0 0 0 -0.98597,-0.051 3.1560514,3.1560514 0 0 0 -0.95369,0.2556 3.1560514,3.1560514 0 0 0 -0.82822,0.5374 3.1560514,3.1560514 0 0 0 -0.62139,0.7672 3.1560514,3.1560514 0 0 0 -0.35401,0.9222 3.1560514,3.1560514 0 0 0 -0.0513,0.986 3.1560514,3.1560514 0 0 0 0.25554,0.9537 3.1560514,3.1560514 0 0 0 0.53742,0.8282 3.1560514,3.1560514 0 0 0 0.76769,0.6217 3.1560514,3.1560514 0 0 0 0.92175,0.3537 3.1560514,3.1560514 0 0 0 0.98597,0.051 3.1560514,3.1560514 0 0 0 0.95413,-0.2553 3.1560514,3.1560514 0 0 0 0.82778,-0.5376 3.1560514,3.1560514 0 0 0 0.62163,-0.7677 3.1560514,3.1560514 0 0 0 0.35377,-0.9218 3.1560514,3.1560514 0 0 0 0.0517,-0.9857 3.1560514,3.1560514 0 0 0 -0.25599,-0.9539 3.1560514,3.1560514 0 0 0 -0.53742,-0.8283 3.1560514,3.1560514 0 0 0 -0.76724,-0.6213 z" />
      <path
         id="path5238"
         style="fill:#14171b;stroke:#14171b;stroke-width:0.529166;stroke-linecap:round;stroke-linejoin:round;stroke-dasharray:none;stroke-dashoffset:0"
         d="m 216.65303,1036.3069 a 13.375393,13.375397 30 0 0 0.54232,0.087 13.375393,13.375397 30 0 0 0.74621,0.077 13.375393,13.375397 30 0 0 0.74939,0.035 13.375393,13.375397 30 0 0 0.75055,-0.01 13.375393,13.375397 30 0 0 0.74869,-0.049 13.375393,13.375397 30 0 0 0.7447,-0.091 13.375393,13.375397 30 0 0 0.73816,-0.1323 13.375393,13.375397 30 0 0 0.73001,-0.1741 13.375393,13.375397 30 0 0 0.71923,-0.2142 13.375393,13.375397 30 0 0 0.70544,-0.2545 13.375393,13.375397 30 0 0 0.69041,-0.2936 13.375393,13.375397 30 0 0 0.67303,-0.3316 13.375393,13.375397 30 0 0 0.65351,-0.3692 13.375393,13.375397 30 0 0 0.63137,-0.4053 13.375393,13.375397 30 0 0 0.60774,-0.4397 13.375393,13.375397 30 0 0 0.58218,-0.473 13.375393,13.375397 30 0 0 0.55497,-0.5054 13.375393,13.375397 30 0 0 0.52503,-0.5353 13.375393,13.375397 30 0 0 0.49459,-0.5642 13.375393,13.375397 30 0 0 0.4624,-0.5911 13.375393,13.375397 30 0 0 0.42852,-0.616 13.375393,13.375397 30 0 0 0.39328,-0.6388 13.375393,13.375397 30 0 0 0.35655,-0.6599 13.375393,13.375397 30 0 0 0.31923,-0.6791 13.375393,13.375397 30 0 0 0.28045,-0.6956 13.375393,13.375397 30 0 0 0.24128,-0.7104 13.375393,13.375397 30 0 0 0.20129,-0.7228 13.375393,13.375397 30 0 0 0.15997,-0.7329 13.375393,13.375397 30 0 0 0.11881,-0.7411 13.375393,13.375397 30 0 0 0.077,-0.7462 13.375393,13.375397 30 0 0 0.0353,-0.7494 13.375393,13.375397 30 0 0 -0.007,-0.7501 13.375393,13.375397 30 0 0 -0.049,-0.7491 13.375393,13.375397 30 0 0 -0.091,-0.7447 13.375393,13.375397 30 0 0 -0.13235,-0.7382 13.375393,13.375397 30 0 0 -0.17404,-0.73 13.375393,13.375397 30 0 0 -0.21454,-0.7188 13.375393,13.375397 30 0 0 -0.25421,-0.7059 13.375393,13.375397 30 0 0 -0.29356,-0.6904 13.375393,13.375397 30 0 0 -0.33166,-0.673 13.375393,13.375397 30 0 0 -0.36944,-0.6531 13.375393,13.375397 30 0 0 -0.40497,-0.6318 13.375393,13.375397 30 0 0 -0.43976,-0.6077 13.375393,13.375397 30 0 0 -0.34647,-0.4262 56.657635,56.657627 30 0 0 -2.19967,2.457 56.657635,56.657627 30 0 0 -2.82506,3.7346 56.657635,56.657627 30 0 0 -2.50722,3.955 56.657635,56.657627 30 0 0 -2.17156,4.1489 56.657635,56.657627 30 0 0 -1.82169,4.3138 56.657635,56.657627 30 0 0 -1.02804,3.1335 z" />
      <path
         id="path5240"
         style="fill:#14171b;stroke:#14171b;stroke-width:0.529166;stroke-linecap:round;stroke-linejoin:round;stroke-dasharray:none;stroke-dashoffset:0"
         d="m 236.44949,992.80763 a 35.016518,35.016506 30 0 0 -3.26572,-1.66409 35.016518,35.016506 30 0 0 -3.42176,-1.3132 35.016518,35.016506 30 0 0 -3.54042,-0.94851 35.016518,35.016506 30 0 0 -3.62011,-0.57383 35.016518,35.016506 30 0 0 -3.65993,-0.19167 35.016518,35.016506 30 0 0 -3.6605,0.1917 35.016518,35.016506 30 0 0 -3.62021,0.57357 35.016518,35.016506 30 0 0 -3.54015,0.94859 35.016518,35.016506 30 0 0 -3.42198,1.31336 35.016518,35.016506 30 0 0 -3.26594,1.66424 35.016518,35.016506 30 0 0 -3.07376,1.99596 35.016518,35.016506 30 0 0 -2.84819,2.30699 35.016518,35.016506 30 0 0 -2.59184,2.59165 35.016518,35.016506 30 0 0 -2.30672,2.84821 35.016518,35.016506 30 0 0 -1.99616,3.074 35.016518,35.016506 30 0 0 -1.66408,3.2657 35.016518,35.016506 30 0 0 -1.31322,3.4217 35.016518,35.016506 30 0 0 -0.94851,3.5405 35.016518,35.016506 30 0 0 -0.57383,3.6201 35.016518,35.016506 30 0 0 -0.19192,3.6603 35.016518,35.016506 30 0 0 0.19195,3.6601 35.016518,35.016506 30 0 0 0.57359,3.6202 35.016518,35.016506 30 0 0 0.94857,3.5402 35.016518,35.016506 30 0 0 1.31338,3.4219 35.016518,35.016506 30 0 0 1.66423,3.266 35.016518,35.016506 30 0 0 1.99596,3.0737 35.016518,35.016506 30 0 0 2.30675,2.8487 35.016518,35.016506 30 0 0 2.5919,2.5914 35.016518,35.016506 30 0 0 2.84815,2.3067 35.016518,35.016506 30 0 0 3.074,1.9961 35.016518,35.016506 30 0 0 3.26573,1.6641 35.016518,35.016506 30 0 0 3.4222,1.3135 35.016518,35.016506 30 0 0 3.54017,0.9489 35.016518,35.016506 30 0 0 0.37682,0.059 56.657635,56.657627 30 0 1 -0.25762,-2.6626 56.657635,56.657627 30 0 1 -0.0644,-4.682 56.657635,56.657627 30 0 1 0.32231,-4.6717 56.657635,56.657627 30 0 1 0.7071,-4.6292 56.657635,56.657627 30 0 1 1.08673,-4.5549 56.657635,56.657627 30 0 1 0.21898,-0.6666 56.657635,56.657627 30 0 1 1.24065,-3.7829 56.657635,56.657627 30 0 1 1.8217,-4.3139 56.657635,56.657627 30 0 1 2.17156,-4.1488 56.657635,56.657627 30 0 1 2.50722,-3.9551 56.657635,56.657627 30 0 1 2.82505,-3.7345 56.657635,56.657627 30 0 1 2.65575,-2.9659 56.657635,56.657627 30 0 1 0.4678,-0.5229 56.657635,56.657627 30 0 1 3.40137,-3.2187 56.657635,56.657627 30 0 1 3.65517,-2.9265 56.657635,56.657627 30 0 1 3.88466,-2.615 56.657635,56.657627 30 0 1 4.08715,-2.2856 56.657635,56.657627 30 0 1 2.44733,-1.11352 35.016518,35.016506 30 0 0 -0.25272,-0.29091 35.016518,35.016506 30 0 0 -0.83352,-0.89415 35.016518,35.016506 30 0 0 -0.86448,-0.86429 35.016518,35.016506 30 0 0 -0.89365,-0.8334 35.016518,35.016506 30 0 0 -0.92264,-0.8018 35.016518,35.016506 30 0 0 -0.94983,-0.76916 35.016518,35.016506 30 0 0 -0.97612,-0.73602 35.016518,35.016506 30 0 0 -1.00116,-0.70094 35.016518,35.016506 30 0 0 -1.02502,-0.66581 35.016518,35.016506 30 0 0 -1.04782,-0.62944 z m -11.64443,18.30837 a 13.375393,13.375397 30 0 0 -0.21382,-0.1019 13.375393,13.375397 30 0 1 0.21382,0.1019 z m -1.94956,-0.7687 a 13.375393,13.375397 30 0 0 -0.23133,-0.068 13.375393,13.375397 30 0 1 0.23133,0.068 z m -2.04825,-0.4552 a 13.375393,13.375397 30 0 0 -0.24307,-0.032 13.375393,13.375397 30 0 1 0.24307,0.032 z m -2.09542,-0.1285 a 13.375393,13.375397 30 0 0 -0.24142,0.01 13.375393,13.375397 30 0 1 0.24142,-0.01 z m -2.09111,0.2009 a 13.375393,13.375397 30 0 0 -0.22991,0.043 13.375393,13.375397 30 0 1 0.22991,-0.043 z m -2.03352,0.5259 a 13.375393,13.375397 30 0 0 -0.22046,0.078 13.375393,13.375397 30 0 1 0.22046,-0.078 z m -1.91939,0.8348 a 13.375393,13.375397 30 0 0 -0.21249,0.1148 13.375393,13.375397 30 0 1 0.21249,-0.1148 z m -1.76827,1.1248 a 13.375393,13.375397 30 0 0 -0.19467,0.149 13.375393,13.375397 30 0 1 0.19467,-0.149 z m -1.57478,1.3923 a 13.375393,13.375397 30 0 0 -0.16606,0.175 13.375393,13.375397 30 0 1 0.16606,-0.175 z m -1.33589,1.6203 a 13.375393,13.375397 30 0 0 -0.13419,0.1953 13.375393,13.375397 30 0 1 0.13419,-0.1953 z m -1.06437,1.8064 a 13.375393,13.375397 30 0 0 -0.10197,0.2138 13.375393,13.375397 30 0 1 0.10197,-0.2138 z m -0.76874,1.9495 a 13.375393,13.375397 30 0 0 -0.0686,0.2314 13.375393,13.375397 30 0 1 0.0686,-0.2314 z m -0.45571,2.0534 a 13.375393,13.375397 30 0 0 -0.0307,0.234 13.375393,13.375397 30 0 1 0.0307,-0.234 z m -0.12828,2.0908 a 13.375393,13.375397 30 0 0 0.007,0.2414 13.375393,13.375397 30 0 1 -0.007,-0.2414 z m 0.20062,2.0885 a 13.375393,13.375397 30 0 0 0.0439,0.2372 13.375393,13.375397 30 0 1 -0.0439,-0.2372 z m 0.52654,2.0356 a 13.375393,13.375397 30 0 0 0.078,0.2205 13.375393,13.375397 30 0 1 -0.078,-0.2205 z m 0.83471,1.9194 a 13.375393,13.375397 30 0 0 0.11482,0.2125 13.375393,13.375397 30 0 1 -0.11482,-0.2125 z m 1.12486,1.7683 a 13.375393,13.375397 30 0 0 0.14897,0.1947 13.375393,13.375397 30 0 1 -0.14897,-0.1947 z m 1.3923,1.5748 a 13.375393,13.375397 30 0 0 0.17503,0.1661 13.375393,13.375397 30 0 1 -0.17503,-0.1661 z m 1.62033,1.3359 a 13.375393,13.375397 30 0 0 0.19522,0.1342 13.375393,13.375397 30 0 1 -0.19522,-0.1342 z" />
    </g>
  </g>
</svg>
