<?xml version="1.0" encoding="UTF-8" standalone="no"?>
<!-- Created with Inkscape (http://www.inkscape.org/) -->

<svg
   width="3241.7852"
   height="166.58597"
   viewBox="0 0 857.7223 44.07587"
   version="1.1"
   id="svg5"
   inkscape:version="1.2.2 (b0a8486541, 2022-12-01)"
   sodipodi:docname="palette_dark.svg"
   inkscape:export-filename="palette_dark.png"
   inkscape:export-xdpi="144"
   inkscape:export-ydpi="144"
   xmlns:inkscape="http://www.inkscape.org/namespaces/inkscape"
   xmlns:sodipodi="http://sodipodi.sourceforge.net/DTD/sodipodi-0.dtd"
   xmlns="http://www.w3.org/2000/svg"
   xmlns:svg="http://www.w3.org/2000/svg">
  <sodipodi:namedview
     id="namedview7"
     pagecolor="#ffffff"
     bordercolor="#999999"
     borderopacity="1"
     inkscape:showpageshadow="0"
     inkscape:pageopacity="0"
     inkscape:pagecheckerboard="0"
     inkscape:deskcolor="#ffffff"
     inkscape:document-units="px"
     showgrid="false"
     showborder="true"
     showguides="false"
     inkscape:zoom="0.35355339"
     inkscape:cx="1429.7699"
     inkscape:cy="125.86501"
     inkscape:window-width="1900"
     inkscape:window-height="1016"
     inkscape:window-x="1928"
     inkscape:window-y="52"
     inkscape:window-maximized="1"
     inkscape:current-layer="layer1" />
  <defs
     id="defs2" />
  <g
     inkscape:label="Layer 1"
     inkscape:groupmode="layer"
     id="layer1"
     transform="translate(323.86115,-126.46206)">
    <g
       id="g1865"
       transform="translate(42.968131,-162.13996)">
      <path
         id="path1789"
         style="opacity:1;fill:#33383d;stroke:#dcdddd;stroke-width:0.79375;stroke-linecap:round;stroke-linejoin:round;stroke-dasharray:none"
         d="m -344.79135,288.99889 a 21.641121,21.641121 0 0 0 -21.64106,21.64106 21.641121,21.641121 0 0 0 21.64106,21.64106 H 468.8551 a 21.641121,21.641121 0 0 0 21.64105,-21.64106 21.641121,21.641121 0 0 0 -21.64105,-21.64106 z" />
      <path
         id="path1197"
         style="opacity:1;fill:#ff95c4;stroke:#dcdddd;stroke-width:0.79375;stroke-linecap:round;stroke-linejoin:round;stroke-dasharray:none"
         d="m 433.83855,297.26457 a 13.375393,13.375397 0 0 0 -13.37541,13.37541 13.375393,13.375397 0 0 0 13.37541,13.37541 h 26.75082 a 13.375393,13.375397 0 0 0 13.37541,-13.37541 13.375393,13.375397 0 0 0 -13.37541,-13.37541 z" />
      <path
         id="path1723"
         style="opacity:1;fill:#ea95ff;stroke:#dcdddd;stroke-width:0.79375;stroke-linecap:round;stroke-linejoin:round;stroke-dasharray:none"
         d="m 363.80546,297.26457 a 13.375393,13.375397 0 0 0 -13.37542,13.37541 13.375393,13.375397 0 0 0 13.37542,13.37541 h 26.75082 a 13.375393,13.375397 0 0 0 13.37541,-13.37541 13.375393,13.375397 0 0 0 -13.37541,-13.37541 z" />
      <path
         id="path1735"
         style="opacity:1;fill:#b6b1ff;stroke:#dcdddd;stroke-width:0.79375;stroke-linecap:round;stroke-linejoin:round;stroke-dasharray:none"
         d="m 293.77236,297.26457 a 13.375393,13.375397 0 0 0 -13.37541,13.37541 13.375393,13.375397 0 0 0 13.37541,13.37541 h 26.75082 a 13.375393,13.375397 0 0 0 13.37541,-13.37541 13.375393,13.375397 0 0 0 -13.37541,-13.37541 z" />
      <path
         id="path1739"
         style="opacity:1;fill:#8bbfff;stroke:#dcdddd;stroke-width:0.79375;stroke-linecap:round;stroke-linejoin:round;stroke-dasharray:none"
         d="m 223.73927,297.26457 a 13.375393,13.375397 0 0 0 -13.37541,13.37541 13.375393,13.375397 0 0 0 13.37541,13.37541 h 26.75082 a 13.375393,13.375397 0 0 0 13.37541,-13.37541 13.375393,13.375397 0 0 0 -13.37541,-13.37541 z" />
      <path
         id="path1743"
         style="opacity:1;fill:#56caff;stroke:#dcdddd;stroke-width:0.79375;stroke-linecap:round;stroke-linejoin:round;stroke-dasharray:none"
         d="m 153.70618,297.26457 a 13.375393,13.375397 0 0 0 -13.37541,13.37541 13.375393,13.375397 0 0 0 13.37541,13.37541 H 180.457 A 13.375393,13.375397 0 0 0 193.83241,310.63998 13.375393,13.375397 0 0 0 180.457,297.26457 Z" />
      <path
         id="path1747"
         style="opacity:1;fill:#00d3eb;stroke:#dcdddd;stroke-width:0.79375;stroke-linecap:round;stroke-linejoin:round;stroke-dasharray:none"
         d="m 83.673092,297.26457 a 13.375393,13.375397 0 0 0 -13.37542,13.37541 13.375393,13.375397 0 0 0 13.37542,13.37541 h 26.750818 a 13.375393,13.375397 0 0 0 13.37541,-13.37541 13.375393,13.375397 0 0 0 -13.37541,-13.37541 z" />
      <path
         id="path1751"
         style="opacity:1;fill:#00d8cb;stroke:#dcdddd;stroke-width:0.79375;stroke-linecap:round;stroke-linejoin:round;stroke-dasharray:none"
         d="M 13.639993,297.26457 A 13.375393,13.375397 0 0 0 0.2645835,310.63998 13.375393,13.375397 0 0 0 13.639993,324.01539 h 26.75082 a 13.375393,13.375397 0 0 0 13.37541,-13.37541 13.375393,13.375397 0 0 0 -13.37541,-13.37541 z" />
      <path
         id="path1755"
         style="opacity:1;fill:#00dca0;stroke:#dcdddd;stroke-width:0.79375;stroke-linecap:round;stroke-linejoin:round;stroke-dasharray:none"
         d="m -56.393097,297.26457 a 13.375393,13.375397 0 0 0 -13.37541,13.37541 13.375393,13.375397 0 0 0 13.37541,13.37541 h 26.75082 a 13.375393,13.375397 0 0 0 13.37541,-13.37541 13.375393,13.375397 0 0 0 -13.37541,-13.37541 z" />
      <path
         id="path1759"
         style="opacity:1;fill:#90d400;stroke:#dcdddd;stroke-width:0.79375;stroke-linecap:round;stroke-linejoin:round;stroke-dasharray:none"
         d="m -126.42619,297.26457 a 13.375393,13.375397 0 0 0 -13.37541,13.37541 13.375393,13.375397 0 0 0 13.37541,13.37541 h 26.750823 a 13.375393,13.375397 0 0 0 13.37541,-13.37541 13.375393,13.375397 0 0 0 -13.37541,-13.37541 z" />
      <path
         id="path1763"
         style="opacity:1;fill:#dfb800;stroke:#dcdddd;stroke-width:0.79375;stroke-linecap:round;stroke-linejoin:round;stroke-dasharray:none"
         d="m -196.45928,297.26457 a 13.375393,13.375397 0 0 0 -13.37542,13.37541 13.375393,13.375397 0 0 0 13.37542,13.37541 h 26.75082 a 13.375393,13.375397 0 0 0 13.37541,-13.37541 13.375393,13.375397 0 0 0 -13.37541,-13.37541 z" />
      <path
         id="path1767"
         style="opacity:1;fill:#ffa353;stroke:#dcdddd;stroke-width:0.79375;stroke-linecap:round;stroke-linejoin:round;stroke-dasharray:none"
         d="m -266.49238,297.26457 a 13.375393,13.375397 0 0 0 -13.37541,13.37541 13.375393,13.375397 0 0 0 13.37541,13.37541 h 26.75082 a 13.375393,13.375397 0 0 0 13.37541,-13.37541 13.375393,13.375397 0 0 0 -13.37541,-13.37541 z" />
      <path
         id="path1771"
         style="opacity:1;fill:#ff9d94;stroke:#dcdddd;stroke-width:0.79375;stroke-linecap:round;stroke-linejoin:round;stroke-dasharray:none"
         d="m -336.52547,297.26457 a 13.375393,13.375397 0 0 0 -13.37541,13.37541 13.375393,13.375397 0 0 0 13.37541,13.37541 h 26.75082 a 13.375393,13.375397 0 0 0 13.37541,-13.37541 13.375393,13.375397 0 0 0 -13.37541,-13.37541 z" />
    </g>
  </g>
</svg>
