<?xml version="1.0" encoding="UTF-8" standalone="no"?>
<!-- Created with Inkscape (http://www.inkscape.org/) -->

<svg
   width="3241.7852"
   height="166.58597"
   viewBox="0 0 857.7223 44.07587"
   version="1.1"
   id="svg5"
   inkscape:version="1.2.2 (b0a8486541, 2022-12-01)"
   sodipodi:docname="palette_dark.svg"
   inkscape:export-filename="palette_dark.png"
   inkscape:export-xdpi="144"
   inkscape:export-ydpi="144"
   xmlns:inkscape="http://www.inkscape.org/namespaces/inkscape"
   xmlns:sodipodi="http://sodipodi.sourceforge.net/DTD/sodipodi-0.dtd"
   xmlns="http://www.w3.org/2000/svg"
   xmlns:svg="http://www.w3.org/2000/svg">
  <sodipodi:namedview
     id="namedview7"
     pagecolor="#ffffff"
     bordercolor="#999999"
     borderopacity="1"
     inkscape:showpageshadow="0"
     inkscape:pageopacity="0"
     inkscape:pagecheckerboard="0"
     inkscape:deskcolor="#ffffff"
     inkscape:document-units="px"
     showgrid="false"
     showborder="true"
     showguides="false"
     inkscape:zoom="0.35355339"
     inkscape:cx="1483.51"
     inkscape:cy="52.325902"
     inkscape:window-width="1900"
     inkscape:window-height="1016"
     inkscape:window-x="1928"
     inkscape:window-y="52"
     inkscape:window-maximized="1"
     inkscape:current-layer="layer1" />
  <defs
     id="defs2" />
  <g
     inkscape:label="Layer 1"
     inkscape:groupmode="layer"
     id="layer1"
     transform="translate(323.86115,-126.46206)">
    <path
       id="path1789"
       style="fill:#14171b;stroke:#14171b;stroke-width:0.79375;stroke-linecap:round;stroke-linejoin:round;stroke-dasharray:none"
       d="m -301.82322,126.85893 a 21.641121,21.641121 0 0 0 -21.64106,21.64106 21.641121,21.641121 0 0 0 21.64106,21.64106 h 813.64645 a 21.641121,21.641121 0 0 0 21.64105,-21.64106 21.641121,21.641121 0 0 0 -21.64105,-21.64106 z" />
    <path
       id="path1197"
       style="fill:#ff95c4;stroke:#ff95c4;stroke-width:0.79375;stroke-linecap:round;stroke-linejoin:round;stroke-dasharray:none"
       d="m 476.80668,135.12461 a 13.375393,13.375397 0 0 0 -13.37541,13.37541 13.375393,13.375397 0 0 0 13.37541,13.37541 h 26.75082 a 13.375393,13.375397 0 0 0 13.37541,-13.37541 13.375393,13.375397 0 0 0 -13.37541,-13.37541 z" />
    <path
       id="path1723"
       style="fill:#ea95ff;stroke:#ea95ff;stroke-width:0.79375;stroke-linecap:round;stroke-linejoin:round;stroke-dasharray:none"
       d="m 406.77359,135.12461 a 13.375393,13.375397 0 0 0 -13.37542,13.37541 13.375393,13.375397 0 0 0 13.37542,13.37541 h 26.75082 a 13.375393,13.375397 0 0 0 13.37541,-13.37541 13.375393,13.375397 0 0 0 -13.37541,-13.37541 z" />
    <path
       id="path1735"
       style="fill:#b6b1ff;stroke:#b6b1ff;stroke-width:0.79375;stroke-linecap:round;stroke-linejoin:round;stroke-dasharray:none"
       d="m 336.74049,135.12461 a 13.375393,13.375397 0 0 0 -13.37541,13.37541 13.375393,13.375397 0 0 0 13.37541,13.37541 h 26.75082 a 13.375393,13.375397 0 0 0 13.37541,-13.37541 13.375393,13.375397 0 0 0 -13.37541,-13.37541 z" />
    <path
       id="path1739"
       style="fill:#8bbfff;stroke:#8bbfff;stroke-width:0.79375;stroke-linecap:round;stroke-linejoin:round;stroke-dasharray:none"
       d="m 266.7074,135.12461 a 13.375393,13.375397 0 0 0 -13.37541,13.37541 13.375393,13.375397 0 0 0 13.37541,13.37541 h 26.75082 a 13.375393,13.375397 0 0 0 13.37541,-13.37541 13.375393,13.375397 0 0 0 -13.37541,-13.37541 z" />
    <path
       id="path1743"
       style="fill:#56caff;stroke:#56caff;stroke-width:0.79375;stroke-linecap:round;stroke-linejoin:round;stroke-dasharray:none"
       d="m 196.67431,135.12461 a 13.375393,13.375397 0 0 0 -13.37541,13.37541 13.375393,13.375397 0 0 0 13.37541,13.37541 h 26.75082 a 13.375393,13.375397 0 0 0 13.37541,-13.37541 13.375393,13.375397 0 0 0 -13.37541,-13.37541 z" />
    <path
       id="path1747"
       style="fill:#00d3eb;stroke:#00d3eb;stroke-width:0.79375;stroke-linecap:round;stroke-linejoin:round;stroke-dasharray:none"
       d="m 126.64122,135.12461 a 13.375393,13.375397 0 0 0 -13.37542,13.37541 13.375393,13.375397 0 0 0 13.37542,13.37541 h 26.75082 a 13.375393,13.375397 0 0 0 13.37541,-13.37541 13.375393,13.375397 0 0 0 -13.37541,-13.37541 z" />
    <path
       id="path1751"
       style="fill:#00d8cb;stroke:#00d8cb;stroke-width:0.79375;stroke-linecap:round;stroke-linejoin:round;stroke-dasharray:none"
       d="m 56.608124,135.12461 a 13.375393,13.375397 0 0 0 -13.37541,13.37541 13.375393,13.375397 0 0 0 13.37541,13.37541 h 26.75082 a 13.375393,13.375397 0 0 0 13.37541,-13.37541 13.375393,13.375397 0 0 0 -13.37541,-13.37541 z" />
    <path
       id="path1755"
       style="fill:#00dca0;stroke:#00dca0;stroke-width:0.79375;stroke-linecap:round;stroke-linejoin:round;stroke-dasharray:none"
       d="m -13.424966,135.12461 a 13.375393,13.375397 0 0 0 -13.37541,13.37541 13.375393,13.375397 0 0 0 13.37541,13.37541 h 26.75082 a 13.375393,13.375397 0 0 0 13.37541,-13.37541 13.375393,13.375397 0 0 0 -13.37541,-13.37541 z" />
    <path
       id="path1759"
       style="fill:#90d400;stroke:#90d400;stroke-width:0.79375;stroke-linecap:round;stroke-linejoin:round;stroke-dasharray:none"
       d="m -83.458059,135.12461 a 13.375393,13.375397 0 0 0 -13.37541,13.37541 13.375393,13.375397 0 0 0 13.37541,13.37541 h 26.750823 a 13.375393,13.375397 0 0 0 13.37541,-13.37541 13.375393,13.375397 0 0 0 -13.37541,-13.37541 z" />
    <path
       id="path1763"
       style="fill:#dfb800;stroke:#dfb800;stroke-width:0.79375;stroke-linecap:round;stroke-linejoin:round;stroke-dasharray:none"
       d="m -153.49115,135.12461 a 13.375393,13.375397 0 0 0 -13.37542,13.37541 13.375393,13.375397 0 0 0 13.37542,13.37541 h 26.75082 a 13.375393,13.375397 0 0 0 13.37541,-13.37541 13.375393,13.375397 0 0 0 -13.37541,-13.37541 z" />
    <path
       id="path1767"
       style="fill:#ffa353;stroke:#ffa353;stroke-width:0.79375;stroke-linecap:round;stroke-linejoin:round;stroke-dasharray:none"
       d="m -223.52425,135.12461 a 13.375393,13.375397 0 0 0 -13.37541,13.37541 13.375393,13.375397 0 0 0 13.37541,13.37541 h 26.75082 a 13.375393,13.375397 0 0 0 13.37541,-13.37541 13.375393,13.375397 0 0 0 -13.37541,-13.37541 z" />
    <path
       id="path1771"
       style="fill:#ff9d94;stroke:#ff9d94;stroke-width:0.79375;stroke-linecap:round;stroke-linejoin:round;stroke-dasharray:none"
       d="m -293.55734,135.12461 a 13.375393,13.375397 0 0 0 -13.37541,13.37541 13.375393,13.375397 0 0 0 13.37541,13.37541 h 26.75082 a 13.375393,13.375397 0 0 0 13.37541,-13.37541 13.375393,13.375397 0 0 0 -13.37541,-13.37541 z" />
  </g>
</svg>
